<svg width="17" height="17" viewBox="0 0 17 17" fill="none" xmlns="http://www.w3.org/2000/svg">
<path d="M7.08355 17C5.90808 17 4.81368 16.7061 3.80035 16.1184C2.80728 15.5307 2.00675 14.7301 1.39875 13.7168C0.811017 12.7035 0.517151 11.5989 0.517151 10.4032C0.517151 9.20747 0.811017 8.1232 1.39875 7.1504C2.00675 6.15733 2.80728 5.36693 3.80035 4.7792C4.81368 4.19147 5.90808 3.8976 7.08355 3.8976C7.71182 3.8976 8.30968 3.97867 8.87715 4.1408C9.44462 4.28267 9.99182 4.52587 10.5188 4.8704L12.2212 2.9552L8.72515 1.2224L16.4772 0.371199L16.5076 8.0928L14.3796 4.84L12.586 6.8768C12.9508 7.38347 13.2244 7.9408 13.4068 8.5488C13.5892 9.13653 13.6804 9.75467 13.6804 10.4032C13.6804 11.5989 13.3764 12.7035 12.7684 13.7168C12.1806 14.7301 11.3801 15.5307 10.3668 16.1184C9.37368 16.7061 8.27928 17 7.08355 17ZM7.08355 14.264C7.79288 14.264 8.44142 14.0917 9.02915 13.7472C9.61688 13.4027 10.083 12.9365 10.4276 12.3488C10.7924 11.7611 10.9748 11.1125 10.9748 10.4032C10.9748 9.71413 10.7924 9.08587 10.4276 8.5184C10.083 7.95093 9.61688 7.49493 9.02915 7.1504C8.44142 6.80587 7.79288 6.6336 7.08355 6.6336C6.39448 6.6336 5.75608 6.80587 5.16835 7.1504C4.58062 7.49493 4.10435 7.95093 3.73955 8.5184C3.39502 9.08587 3.22275 9.71413 3.22275 10.4032C3.22275 11.1125 3.39502 11.7611 3.73955 12.3488C4.10435 12.9365 4.58062 13.4027 5.16835 13.7472C5.75608 14.0917 6.39448 14.264 7.08355 14.264Z" fill="#C45D41"/>
</svg>
