<svg width="14" height="22" viewBox="0 0 14 22" fill="none" xmlns="http://www.w3.org/2000/svg">
<path d="M5.57761 21.3648V18.2944H2.20321V15.6496H5.57761V13.7344C4.60481 13.5317 3.72321 13.1264 2.93281 12.5184C2.16268 11.8901 1.54455 11.1301 1.07841 10.2384C0.632546 9.3264 0.409613 8.34347 0.409613 7.2896C0.409613 6.11413 0.713613 5.04 1.32161 4.0672C1.92961 3.07413 2.73015 2.28373 3.72321 1.696C4.73655 1.088 5.83095 0.784 7.00641 0.784C8.20215 0.784 9.29655 1.088 10.2896 1.696C11.3029 2.28373 12.1035 3.07413 12.6912 4.0672C13.2992 5.04 13.6032 6.11413 13.6032 7.2896C13.6032 8.3232 13.3803 9.296 12.9344 10.208C12.4885 11.0997 11.8805 11.8597 11.1104 12.488C10.3403 13.1163 9.44855 13.5317 8.43521 13.7344V15.6496H11.5968V18.2944H8.43521V21.3648H5.57761ZM7.00641 11.1808C7.71575 11.1808 8.36428 11.0085 8.95201 10.664C9.53975 10.2992 10.0059 9.82293 10.3504 9.2352C10.6949 8.64747 10.8672 7.99893 10.8672 7.2896C10.8672 6.60053 10.6949 5.97227 10.3504 5.4048C10.0059 4.83733 9.53975 4.39147 8.95201 4.0672C8.36428 3.72267 7.71575 3.5504 7.00641 3.5504C6.31735 3.5504 5.67895 3.72267 5.09121 4.0672C4.50348 4.39147 4.02721 4.83733 3.66241 5.4048C3.31788 5.97227 3.14561 6.60053 3.14561 7.2896C3.14561 7.99893 3.31788 8.64747 3.66241 9.2352C4.02721 9.82293 4.50348 10.2992 5.09121 10.664C5.67895 11.0085 6.31735 11.1808 7.00641 11.1808Z" fill="#C45D41"/>
</svg>
