<svg width="301" height="41" viewBox="0 0 301 41" fill="none" xmlns="http://www.w3.org/2000/svg">
<g clip-path="url(#clip0_10_61)">
<path d="M16.9747 25.4945C15.6209 25.4945 14.3637 25.156 13.2033 24.4791C12.067 23.8022 11.1483 22.8956 10.4472 21.7593C9.77031 20.5989 9.43185 19.3297 9.43185 17.9516C9.43185 16.5978 9.77031 15.3648 10.4472 14.2527C11.1483 13.1165 12.067 12.2099 13.2033 11.533C14.3637 10.856 15.6209 10.5176 16.9747 10.5176C17.7967 10.5176 18.5824 10.6506 19.3318 10.9165C20.0813 11.1582 20.7945 11.5209 21.4714 12.0044L24.8439 8.23297L21.9791 6.81868L28.0714 6.12967L28.1077 12.2582L26.3308 9.53846L22.8857 13.3824C23.4417 14.0593 23.8527 14.7846 24.1187 15.5582C24.3846 16.3077 24.5176 17.1055 24.5176 17.9516C24.5176 19.3297 24.1791 20.5989 23.5022 21.7593C22.8253 22.8956 21.9066 23.8022 20.7461 24.4791C19.6099 25.156 18.3527 25.4945 16.9747 25.4945ZM16.9747 23.6813C18.0143 23.6813 18.9692 23.4275 19.8395 22.9198C20.7099 22.3879 21.3989 21.6868 21.9066 20.8165C22.4384 19.9462 22.7044 18.9912 22.7044 17.9516C22.7044 16.9363 22.4384 16.0055 21.9066 15.1593C21.3989 14.289 20.7099 13.6 19.8395 13.0923C18.9692 12.5846 18.0143 12.3308 16.9747 12.3308C15.9351 12.3308 14.9802 12.5846 14.1099 13.0923C13.2395 13.6 12.5384 14.289 12.0066 15.1593C11.4989 16.0055 11.245 16.9363 11.245 17.9516C11.245 18.9912 11.4989 19.9462 12.0066 20.8165C12.5384 21.6868 13.2395 22.3879 14.1099 22.9198C14.9802 23.4275 15.9351 23.6813 16.9747 23.6813Z" fill="black"/>
<path d="M8.41319 34.0659V30.1495H4.13407V28.4451H8.41319V25.2539C7.18022 25.0846 6.06813 24.6495 5.07692 23.9484C4.08571 23.2473 3.3 22.3528 2.71978 21.2648C2.13956 20.1769 1.84945 19.0044 1.84945 17.7473C1.84945 16.3934 2.18791 15.1605 2.86484 14.0484C3.56593 12.9121 4.48462 12.0055 5.62088 11.3286C6.78132 10.6517 8.03846 10.3132 9.39231 10.3132C10.7703 10.3132 12.0275 10.6517 13.1637 11.3286C14.3242 12.0055 15.2429 12.9121 15.9198 14.0484C16.5967 15.1605 16.9352 16.3934 16.9352 17.7473C16.9352 18.9802 16.6451 20.1407 16.0648 21.2286C15.4846 22.3165 14.6989 23.2231 13.7077 23.9484C12.7407 24.6495 11.6286 25.0846 10.3714 25.2539V28.4451H14.3967V30.1495H10.3714V34.0659H8.41319ZM9.39231 23.4769C10.4319 23.4769 11.3868 23.2231 12.2571 22.7154C13.1275 22.1835 13.8165 21.4824 14.3242 20.6121C14.856 19.7418 15.122 18.7868 15.122 17.7473C15.122 16.7319 14.856 15.8011 14.3242 14.955C13.8165 14.1088 13.1275 13.4319 12.2571 12.9242C11.3868 12.3923 10.4319 12.1264 9.39231 12.1264C8.35275 12.1264 7.3978 12.3923 6.52747 12.9242C5.65714 13.4319 4.95604 14.1088 4.42418 14.955C3.91648 15.8011 3.66264 16.7319 3.66264 17.7473C3.66264 18.7868 3.91648 19.7418 4.42418 20.6121C4.95604 21.4824 5.65714 22.1835 6.52747 22.7154C7.3978 23.2231 8.35275 23.4769 9.39231 23.4769Z" fill="black"/>
</g>
<path d="M62.6192 14.3294L62.7609 14.6658C62.3005 15.3623 61.9995 15.8404 61.8579 16.1001H58.5644C58.8359 16.7966 58.9716 17.4517 58.9716 18.0655C58.9716 18.9627 58.7355 19.8421 58.2634 20.7039C57.803 21.5538 57.1242 22.2857 56.2271 22.8995C55.3299 23.5016 54.3737 23.9088 53.3585 24.1213C52.6975 24.263 51.8062 24.322 50.6848 24.2984C49.9175 24.9122 49.4335 25.3726 49.2328 25.6795C49.103 25.892 49.0381 26.1222 49.0381 26.3701C49.0381 26.6534 49.1207 26.9072 49.286 27.1315C49.463 27.344 49.7286 27.4915 50.0828 27.5742C50.614 27.7158 51.5583 27.7866 52.9159 27.7866L56.7406 27.7158C58.0745 27.7158 59.0838 27.8929 59.7684 28.247C60.4649 28.5894 60.9784 29.1206 61.3089 29.8406C61.6395 30.5489 61.8047 31.3516 61.8047 32.2488C61.8047 33.4647 61.4034 34.6982 60.6007 35.9495C59.8098 37.2126 58.6293 38.2042 57.0593 38.9243C55.4893 39.6562 53.7304 40.0221 51.7826 40.0221C50.1536 40.0221 48.7665 39.7683 47.6215 39.2607C46.4765 38.7531 45.6265 38.0743 45.0717 37.2244C44.5287 36.3745 44.2572 35.4832 44.2572 34.5507C44.2572 34.0313 44.3339 33.5414 44.4874 33.081C44.6526 32.6324 44.9242 32.1484 45.3019 31.629C46.7421 30.968 47.775 30.3896 48.4006 29.8938C47.4208 29.575 46.7893 29.274 46.506 28.9907C46.2345 28.7074 46.0987 28.4241 46.0987 28.1408C46.0987 27.9047 46.2758 27.2672 46.6299 26.2284C47.2083 25.7444 48.1173 25.0598 49.3568 24.1744C48.2944 23.8793 47.4739 23.537 46.8955 23.1474C46.3289 22.7461 45.8862 22.209 45.5675 21.5361C45.2488 20.8514 45.0894 20.1018 45.0894 19.2873C45.0894 18.0833 45.3963 17.009 46.0102 16.0647C46.624 15.1085 47.6569 14.3353 49.1089 13.7451C50.5608 13.143 51.9066 12.842 53.1461 12.842C53.9488 12.842 54.7102 12.9719 55.4302 13.2316C56.1621 13.4913 56.8527 13.8808 57.502 14.4002C59.7212 14.3884 61.427 14.3648 62.6192 14.3294ZM48.135 18.3134C48.135 19.1516 48.2885 19.9661 48.5954 20.757C48.9141 21.5479 49.3745 22.144 49.9765 22.5454C50.5904 22.9468 51.2868 23.1474 52.0659 23.1474C53.0811 23.1474 53.9783 22.8228 54.7574 22.1735C55.5365 21.5125 55.926 20.456 55.926 19.004C55.926 17.5166 55.5365 16.3362 54.7574 15.4626C53.9783 14.5773 53.0398 14.1346 51.942 14.1346C50.7969 14.1346 49.8762 14.5006 49.1797 15.2324C48.4832 15.9525 48.135 16.9795 48.135 18.3134ZM53.3231 30.1948C51.5642 30.1948 50.4605 30.2184 50.0119 30.2656C49.7876 30.301 49.5338 30.4191 49.2505 30.6197C48.318 31.2808 47.8222 31.6467 47.7632 31.7176C47.6451 31.8356 47.5153 32.0776 47.3736 32.4436C47.1257 33.1046 47.0018 33.7716 47.0018 34.4444C47.0018 35.6839 47.4798 36.7286 48.436 37.5786C49.404 38.4403 50.732 38.8712 52.4201 38.8712C53.6714 38.8712 54.8105 38.6174 55.8375 38.1098C56.8763 37.614 57.6554 36.9293 58.1748 36.0558C58.706 35.194 58.9716 34.3264 58.9716 33.4528C58.9362 32.6974 58.8182 32.1248 58.6175 31.7353C58.4286 31.3457 58.1925 31.0388 57.9092 30.8145C57.6377 30.5902 57.26 30.4073 56.776 30.2656C56.4927 30.2302 55.3417 30.2066 53.3231 30.1948ZM78.8388 27.2554L78.2722 28.5303C77.4576 29.0379 76.8615 29.3744 76.4838 29.5396C75.9289 29.7875 75.2915 29.9941 74.5714 30.1594C73.8631 30.3364 73.1135 30.425 72.3226 30.425C70.7644 30.425 69.3538 30.1003 68.0907 29.4511C66.8276 28.8018 65.8419 27.8339 65.1336 26.5472C64.4372 25.2486 64.0889 23.7318 64.0889 21.9965C64.0889 20.639 64.2719 19.4172 64.6378 18.3312C65.0156 17.2333 65.4405 16.4247 65.9127 15.9053C66.2551 15.5276 66.7863 15.0967 67.5064 14.6127C68.2264 14.1169 68.9406 13.7274 69.6489 13.444C70.5815 13.0545 71.5907 12.8597 72.6768 12.8597C73.9989 12.8597 75.1911 13.1607 76.2536 13.7628C77.3278 14.3648 78.1128 15.1852 78.6086 16.224C79.1044 17.2628 79.3523 18.4374 79.3523 19.7477C79.3523 20.0782 79.3287 20.4796 79.2814 20.9518C78.4315 21.117 77.6701 21.2233 76.9973 21.2705C75.7224 21.3649 74.4475 21.4122 73.1726 21.4122H67.4886C67.5123 23.1002 67.8015 24.4695 68.3563 25.5202C68.9229 26.559 69.6961 27.3263 70.6759 27.8221C71.6675 28.3178 72.6945 28.5657 73.7569 28.5657C74.477 28.5657 75.1911 28.4536 75.8994 28.2293C76.6195 27.9932 77.5049 27.5683 78.5555 26.9544L78.8388 27.2554ZM67.4886 20.0133C67.8192 20.0487 68.4448 20.0841 69.3656 20.1195C71.1245 20.1786 72.3344 20.2081 72.9955 20.2081C74.5655 20.2081 75.5984 20.1786 76.0942 20.1195C76.106 19.8362 76.1119 19.6179 76.1119 19.4644C76.1119 17.5993 75.7342 16.2299 74.9787 15.3564C74.2232 14.4829 73.2139 14.0461 71.9508 14.0461C70.6169 14.0461 69.5426 14.5242 68.7281 15.4803C67.9136 16.4365 67.5005 17.9475 67.4886 20.0133ZM81.0698 30V28.9907L82.752 28.973C82.9999 28.9612 83.1888 28.9199 83.3186 28.8491C83.4603 28.7664 83.5665 28.6661 83.6373 28.548C83.7672 28.3119 83.8498 27.8929 83.8852 27.2908C83.8852 27.1374 83.9207 25.4434 83.9915 22.209V20.1018C83.9915 19.1575 83.9738 18.1423 83.9384 17.0563C83.9029 16.3598 83.8439 15.9466 83.7613 15.8168C83.6905 15.6869 83.5606 15.5925 83.3717 15.5335C83.1829 15.4626 82.4156 15.4331 81.0698 15.4449V14.4356C83.4544 14.1051 85.1955 13.6742 86.2934 13.143C86.5295 13.025 86.6888 12.966 86.7715 12.966C86.8541 12.966 86.919 12.9955 86.9662 13.0545C87.0135 13.1135 87.0371 13.2021 87.0371 13.3201C87.0371 13.4027 87.0312 13.4972 87.0194 13.6034C86.9839 14.0284 86.9485 14.9255 86.9131 16.2949L90.2066 13.4795C91.1746 13.1253 92.0894 12.9483 92.9512 12.9483C93.9073 12.9483 94.8104 13.143 95.6603 13.5326C96.5221 13.9221 97.1654 14.412 97.5904 15.0023C98.0272 15.5925 98.3164 16.3362 98.458 17.2333C98.5407 17.7645 98.582 19.246 98.582 21.6778V24.8119C98.582 26.3465 98.6233 27.3912 98.7059 27.946C98.7649 28.3001 98.8535 28.548 98.9715 28.6897C99.1014 28.8195 99.2961 28.9022 99.5558 28.9376L101.45 28.9907V30C100.294 29.9174 99.3316 29.8761 98.5643 29.8761C97.9032 29.8761 96.8054 29.9174 95.2708 30C95.436 27.0843 95.5187 25.2427 95.5187 24.4754V21.5007C95.5187 19.6474 95.4478 18.4315 95.3062 17.8531C95.1055 17.0622 94.651 16.4247 93.9428 15.9407C93.2345 15.4567 92.3786 15.2147 91.3753 15.2147C90.4899 15.2147 89.6813 15.4272 88.9494 15.8522C88.2175 16.2653 87.6922 16.7493 87.3735 17.3042C87.0666 17.8472 86.9131 18.7679 86.9131 20.0664V22.209C86.9839 25.2782 87.0194 26.9367 87.0194 27.1846C87.043 27.7748 87.1138 28.2057 87.2318 28.4772C87.2791 28.5834 87.3499 28.6779 87.4443 28.7605C87.5388 28.8313 87.6863 28.8904 87.887 28.9376C87.9578 28.9494 88.6071 28.9671 89.8348 28.9907V30C88.3946 29.9174 87.0902 29.8761 85.9215 29.8761C84.9299 29.8761 83.3127 29.9174 81.0698 30ZM102.513 30V28.9907C103.847 28.9671 104.567 28.9435 104.673 28.9199C104.874 28.8845 105.021 28.8313 105.116 28.7605C105.222 28.6779 105.305 28.5657 105.364 28.4241C105.482 28.1526 105.553 27.7276 105.576 27.1492C105.647 23.9974 105.682 22.3506 105.682 22.209V20.1018C105.682 19.1575 105.665 18.1423 105.629 17.0563C105.606 16.3598 105.553 15.9466 105.47 15.8168C105.399 15.6869 105.263 15.5925 105.063 15.5335C104.874 15.4626 104.107 15.4331 102.761 15.4449V14.4356C105.145 14.1051 106.887 13.6742 107.984 13.143C108.22 13.025 108.38 12.966 108.462 12.966C108.545 12.966 108.61 12.9955 108.657 13.0545C108.704 13.1135 108.728 13.2021 108.728 13.3201C108.728 13.4027 108.722 13.4972 108.71 13.6034C108.651 14.3235 108.616 15.439 108.604 16.95C109.135 16.3362 109.625 15.7282 110.074 15.1262C110.522 14.5242 110.847 14.1346 111.048 13.9575C111.402 13.6506 111.809 13.4086 112.269 13.2316C112.73 13.0427 113.208 12.9483 113.704 12.9483C114.199 12.9483 114.689 13.0545 115.173 13.267L115.28 13.5149C115.103 15.0849 115.002 16.466 114.979 17.6583H114.182C113.91 17.0917 113.592 16.6785 113.226 16.4188C112.871 16.1591 112.423 16.0293 111.88 16.0293C110.971 16.0293 110.198 16.407 109.56 17.1625C108.923 17.9062 108.604 19.0276 108.604 20.5268V22.3506C108.604 23.1297 108.634 24.5522 108.693 26.618C108.704 27.3499 108.734 27.8161 108.781 28.0168C108.828 28.2175 108.887 28.3651 108.958 28.4595C109.041 28.5421 109.171 28.613 109.348 28.672C109.702 28.7782 110.658 28.8845 112.216 28.9907V30C110.139 29.9174 108.368 29.8761 106.904 29.8761C105.393 29.8761 103.929 29.9174 102.513 30ZM131.039 27.2554L130.472 28.5303C129.658 29.0379 129.061 29.3744 128.684 29.5396C128.129 29.7875 127.491 29.9941 126.771 30.1594C126.063 30.3364 125.313 30.425 124.523 30.425C122.964 30.425 121.554 30.1003 120.291 29.4511C119.028 28.8018 118.042 27.8339 117.334 26.5472C116.637 25.2486 116.289 23.7318 116.289 21.9965C116.289 20.639 116.472 19.4172 116.838 18.3312C117.216 17.2333 117.64 16.4247 118.113 15.9053C118.455 15.5276 118.986 15.0967 119.706 14.6127C120.426 14.1169 121.141 13.7274 121.849 13.444C122.781 13.0545 123.791 12.8597 124.877 12.8597C126.199 12.8597 127.391 13.1607 128.454 13.7628C129.528 14.3648 130.313 15.1852 130.809 16.224C131.304 17.2628 131.552 18.4374 131.552 19.7477C131.552 20.0782 131.529 20.4796 131.481 20.9518C130.631 21.117 129.87 21.2233 129.197 21.2705C127.922 21.3649 126.647 21.4122 125.373 21.4122H119.689C119.712 23.1002 120.001 24.4695 120.556 25.5202C121.123 26.559 121.896 27.3263 122.876 27.8221C123.867 28.3178 124.894 28.5657 125.957 28.5657C126.677 28.5657 127.391 28.4536 128.099 28.2293C128.819 27.9932 129.705 27.5683 130.755 26.9544L131.039 27.2554ZM119.689 20.0133C120.019 20.0487 120.645 20.0841 121.566 20.1195C123.324 20.1786 124.534 20.2081 125.195 20.2081C126.765 20.2081 127.798 20.1786 128.294 20.1195C128.306 19.8362 128.312 19.6179 128.312 19.4644C128.312 17.5993 127.934 16.2299 127.179 15.3564C126.423 14.4829 125.414 14.0461 124.151 14.0461C122.817 14.0461 121.743 14.5242 120.928 15.4803C120.114 16.4365 119.7 17.9475 119.689 20.0133ZM143.487 24.6525H144.549C144.561 25.3372 144.596 25.8802 144.655 26.2816C144.714 26.6829 144.815 27.0784 144.956 27.4679C145.098 27.8457 145.316 28.1703 145.611 28.4418C145.907 28.7015 146.225 28.9081 146.568 29.0615C146.922 29.2032 147.276 29.2976 147.63 29.3448C147.996 29.3921 148.545 29.4157 149.277 29.4157C150.481 29.4157 151.467 29.0969 152.234 28.4595C153.013 27.8221 153.403 26.9485 153.403 25.8389C153.403 25.3431 153.279 24.9063 153.031 24.5286C152.795 24.1508 152.446 23.8557 151.986 23.6432C151.537 23.4307 150.564 23.1533 149.064 22.811C147.565 22.4687 146.597 22.2208 146.16 22.0673C145.499 21.8194 144.974 21.5184 144.584 21.1643C144.195 20.8101 143.882 20.3615 143.646 19.8185C143.422 19.2755 143.31 18.6853 143.31 18.0478C143.31 17.1153 143.552 16.2594 144.036 15.4803C144.531 14.6894 145.305 14.052 146.355 13.568C147.406 13.0722 148.551 12.8243 149.79 12.8243C150.534 12.8243 151.396 12.9305 152.376 13.143C153.355 13.3437 154.152 13.5975 154.766 13.9044C154.683 15.2147 154.624 16.5487 154.589 17.9062H153.58C153.521 17.0444 153.45 16.4778 153.367 16.2063C153.296 15.9348 153.196 15.6928 153.066 15.4803C152.936 15.2679 152.712 15.0436 152.393 14.8075C152.075 14.5596 151.661 14.3412 151.154 14.1523C150.658 13.9634 150.044 13.869 149.312 13.869C148.273 13.869 147.435 14.1759 146.798 14.7898C146.172 15.4036 145.859 16.1237 145.859 16.95C145.859 17.4104 145.948 17.8058 146.125 18.1364C146.314 18.4669 146.562 18.7384 146.869 18.9509C147.176 19.1516 147.606 19.3345 148.161 19.4998L151.101 20.2258C152.588 20.6035 153.609 20.9282 154.164 21.1997C154.731 21.4712 155.185 21.8961 155.527 22.4746C155.87 23.0412 156.041 23.7259 156.041 24.5286C156.041 26.1222 155.38 27.5151 154.058 28.7074C152.747 29.8879 150.988 30.4781 148.781 30.4781C147.766 30.4781 146.414 30.3246 144.726 30.0177C143.794 29.8406 143.292 29.7167 143.221 29.6459C143.174 29.6104 143.15 29.5514 143.15 29.4688C143.15 29.3862 143.162 29.2858 143.186 29.1678C143.292 28.6602 143.363 28.1644 143.398 27.6804C143.434 27.1964 143.463 26.1871 143.487 24.6525ZM178.157 28.9907V30C176.61 29.9174 175.442 29.8761 174.651 29.8761C173.777 29.8761 172.892 29.9174 171.995 30C172.066 29.0438 172.119 27.9696 172.154 26.7773C171.446 27.344 170.602 28.1172 169.622 29.0969C169.398 29.3212 169.179 29.4865 168.967 29.5927C168.459 29.8761 167.952 30.0767 167.444 30.1948C166.937 30.3246 166.329 30.3896 165.62 30.3896C164.664 30.3896 163.861 30.2597 163.212 30C162.575 29.7403 162.026 29.3448 161.565 28.8136C161.223 28.4241 160.957 27.9224 160.769 27.3086C160.592 26.6829 160.503 25.9333 160.503 25.0598C160.503 24.6466 160.515 24.2571 160.538 23.8911C160.574 23.5252 160.592 23.1651 160.592 22.811V19.7831C160.592 19.4762 160.574 18.703 160.538 17.4635C160.515 16.6844 160.462 16.1768 160.379 15.9407C160.332 15.8227 160.255 15.7282 160.149 15.6574C159.972 15.5394 159.659 15.4803 159.21 15.4803C158.561 15.4803 158.048 15.4744 157.67 15.4626V14.4533C160.208 14.17 162.049 13.7156 163.194 13.0899C163.383 12.9837 163.531 12.9305 163.637 12.9305C163.72 12.9305 163.785 12.9601 163.832 13.0191C163.891 13.0781 163.92 13.1666 163.92 13.2847C163.92 13.3791 163.915 13.4972 163.903 13.6388C163.856 14.0166 163.814 14.7426 163.779 15.8168C163.708 17.7881 163.673 19.1103 163.673 19.7831V23.236C163.673 24.6761 163.767 25.6913 163.956 26.2816C164.157 26.86 164.534 27.3263 165.089 27.6804C165.656 28.0227 166.352 28.1939 167.179 28.1939C167.745 28.1939 168.306 28.0995 168.861 27.9106C169.427 27.7099 169.935 27.4266 170.383 27.0607C170.714 26.7891 171.05 26.4232 171.393 25.9628C171.652 25.6205 171.824 25.3608 171.906 25.1837C171.989 24.9948 172.042 24.7233 172.066 24.3692C172.125 23.3304 172.154 22.2975 172.154 21.2705V19.7831C172.154 19.4762 172.136 18.703 172.101 17.4635C172.077 16.6844 172.024 16.1768 171.942 15.9407C171.894 15.8227 171.818 15.7282 171.711 15.6574C171.534 15.5394 171.222 15.4803 170.773 15.4803C170.124 15.4803 169.61 15.4744 169.233 15.4626V14.4533C171.77 14.17 173.612 13.7156 174.757 13.0899C174.946 12.9837 175.093 12.9305 175.2 12.9305C175.282 12.9305 175.347 12.9601 175.395 13.0191C175.454 13.0781 175.483 13.1666 175.483 13.2847C175.483 13.3791 175.477 13.4972 175.465 13.6388C175.43 14.0166 175.389 14.7662 175.341 15.8876C175.271 17.8117 175.235 19.1103 175.235 19.7831V22.209L175.271 24.6702C175.306 26.0986 175.33 26.9367 175.341 27.1846C175.353 27.7748 175.418 28.2057 175.536 28.4772C175.595 28.5834 175.672 28.6779 175.766 28.7605C175.861 28.8313 176.002 28.8904 176.191 28.9376C176.262 28.9494 176.917 28.9671 178.157 28.9907ZM181.397 30.0708C181.539 28.5834 181.616 27.645 181.627 27.2554C181.698 24.6938 181.734 23.1887 181.734 22.7402V14.8606C181.734 12.8892 181.698 10.8529 181.627 8.75172C181.58 7.33516 181.515 6.54426 181.433 6.37899C181.374 6.26095 181.279 6.17831 181.149 6.1311C180.972 6.04846 180.158 6.00715 178.706 6.00715V4.96244C181.374 4.63191 183.227 4.21875 184.266 3.72296C184.419 3.65213 184.537 3.61671 184.62 3.61671C184.702 3.61671 184.767 3.64623 184.815 3.70525C184.862 3.75247 184.885 3.8233 184.885 3.91773C184.885 4.00036 184.874 4.11841 184.85 4.27187L184.832 4.8562C184.773 6.96922 184.738 8.76942 184.726 10.2568L184.691 13.0191V16.525L187.134 14.1346C187.453 13.8631 187.978 13.5975 188.71 13.3378C189.442 13.0781 190.221 12.9483 191.047 12.9483C192.346 12.9483 193.497 13.2552 194.5 13.869C195.504 14.471 196.271 15.3269 196.802 16.4365C197.345 17.5461 197.617 18.7738 197.617 20.1195C197.617 21.1584 197.463 22.144 197.156 23.0766C196.849 24.0092 196.454 24.8414 195.97 25.5733C195.616 26.1281 195.315 26.5058 195.067 26.7065L192.482 28.5657C191.431 29.3448 190.611 29.8406 190.02 30.0531C189.43 30.2774 188.675 30.3896 187.754 30.3896C186.963 30.3896 186.231 30.2833 185.558 30.0708C184.885 29.8583 184.171 29.4865 183.416 28.9553L181.981 30.301L181.397 30.0708ZM184.691 18.6499V25.29C184.691 25.8802 184.72 26.2579 184.779 26.4232C184.85 26.5885 185.051 26.8069 185.381 27.0784C185.877 27.4915 186.45 27.8221 187.099 28.0699C187.76 28.3178 188.456 28.4418 189.188 28.4418C190.9 28.4418 192.216 27.7807 193.137 26.4586C194.058 25.1365 194.518 23.5016 194.518 21.5538C194.518 20.1727 194.3 19.0158 193.863 18.0833C193.426 17.1507 192.824 16.4542 192.057 15.9938C191.289 15.5217 190.428 15.2856 189.472 15.2856C188.35 15.2856 187.347 15.6102 186.461 16.2594C185.576 16.8969 184.986 17.6937 184.691 18.6499ZM200.822 24.6525H201.884C201.896 25.3372 201.931 25.8802 201.99 26.2816C202.049 26.6829 202.15 27.0784 202.291 27.4679C202.433 27.8457 202.651 28.1703 202.946 28.4418C203.242 28.7015 203.56 28.9081 203.903 29.0615C204.257 29.2032 204.611 29.2976 204.965 29.3448C205.331 29.3921 205.88 29.4157 206.612 29.4157C207.816 29.4157 208.802 29.0969 209.569 28.4595C210.348 27.8221 210.737 26.9485 210.737 25.8389C210.737 25.3431 210.614 24.9063 210.366 24.5286C210.13 24.1508 209.781 23.8557 209.321 23.6432C208.872 23.4307 207.898 23.1533 206.399 22.811C204.9 22.4687 203.932 22.2208 203.495 22.0673C202.834 21.8194 202.309 21.5184 201.919 21.1643C201.53 20.8101 201.217 20.3615 200.981 19.8185C200.757 19.2755 200.645 18.6853 200.645 18.0478C200.645 17.1153 200.887 16.2594 201.371 15.4803C201.866 14.6894 202.64 14.052 203.69 13.568C204.741 13.0722 205.886 12.8243 207.125 12.8243C207.869 12.8243 208.731 12.9305 209.71 13.143C210.69 13.3437 211.487 13.5975 212.101 13.9044C212.018 15.2147 211.959 16.5487 211.924 17.9062H210.915C210.856 17.0444 210.785 16.4778 210.702 16.2063C210.631 15.9348 210.531 15.6928 210.401 15.4803C210.271 15.2679 210.047 15.0436 209.728 14.8075C209.409 14.5596 208.996 14.3412 208.489 14.1523C207.993 13.9634 207.379 13.869 206.647 13.869C205.608 13.869 204.77 14.1759 204.133 14.7898C203.507 15.4036 203.194 16.1237 203.194 16.95C203.194 17.4104 203.283 17.8058 203.46 18.1364C203.649 18.4669 203.897 18.7384 204.204 18.9509C204.511 19.1516 204.941 19.3345 205.496 19.4998L208.436 20.2258C209.923 20.6035 210.944 20.9282 211.499 21.1997C212.066 21.4712 212.52 21.8961 212.862 22.4746C213.205 23.0412 213.376 23.7259 213.376 24.5286C213.376 26.1222 212.715 27.5151 211.393 28.7074C210.082 29.8879 208.323 30.4781 206.116 30.4781C205.101 30.4781 203.749 30.3246 202.061 30.0177C201.129 29.8406 200.627 29.7167 200.556 29.6459C200.509 29.6104 200.485 29.5514 200.485 29.4688C200.485 29.3862 200.497 29.2858 200.521 29.1678C200.627 28.6602 200.698 28.1644 200.733 27.6804C200.769 27.1964 200.798 26.1871 200.822 24.6525ZM215.359 16.1178V15.3741C216.539 14.9255 217.478 14.5242 218.174 14.17C218.174 11.3605 218.139 9.56623 218.068 8.78713C219.296 8.36216 220.293 7.90769 221.061 7.4237L221.486 7.77784C221.356 8.75762 221.214 10.9179 221.061 14.2586C222.005 14.2704 222.572 14.2763 222.76 14.2763C222.867 14.2763 223.475 14.2645 224.584 14.2409C225.198 14.2291 225.659 14.2054 225.965 14.17L226.089 14.294L225.718 15.9407C224.974 15.9289 224.289 15.923 223.664 15.923C223.038 15.923 222.17 15.9289 221.061 15.9407L220.954 23.1474C220.919 24.9063 220.931 25.9569 220.99 26.2993C221.049 26.6416 221.161 26.9426 221.326 27.2023C221.491 27.4502 221.704 27.6509 221.964 27.8043C222.235 27.9578 222.69 28.0758 223.327 28.1585C223.811 28.1585 224.201 28.1408 224.496 28.1054C224.803 28.0581 225.186 27.9519 225.647 27.7866L225.859 28.4772C225.304 28.914 224.767 29.3685 224.248 29.8406C223.799 30.0059 223.38 30.1121 222.991 30.1594C222.601 30.2184 222.153 30.2479 221.645 30.2479C221.019 30.2479 220.518 30.1771 220.14 30.0354C219.774 29.8938 219.437 29.699 219.131 29.4511C218.824 29.1914 218.57 28.8668 218.369 28.4772C218.168 28.0877 218.039 27.4738 217.98 26.6357C217.991 25.833 218.015 24.9535 218.05 23.9974C218.062 23.8085 218.068 23.6019 218.068 23.3776V16.0293H217.342C216.752 16.0293 216.091 16.0588 215.359 16.1178ZM230.215 17.8708L229.277 17.6229C229.288 17.3514 229.294 16.9795 229.294 16.5073C229.294 16.0115 229.288 15.6161 229.277 15.321C230.776 14.3412 232.003 13.6801 232.96 13.3378C233.692 13.0899 234.512 12.966 235.421 12.966C236.767 12.966 237.9 13.2198 238.821 13.7274C239.741 14.235 240.426 14.9609 240.875 15.9053C241.182 16.5664 241.335 17.4694 241.335 18.6145L241.264 21.8548V27.1315C241.264 27.6981 241.311 28.1054 241.406 28.3533C241.477 28.5303 241.589 28.6602 241.742 28.7428C241.86 28.8136 242.108 28.8609 242.486 28.8845L243.637 28.9907V30C242.669 29.9174 241.819 29.8761 241.087 29.8761C240.379 29.8761 239.434 29.9174 238.254 30L238.343 26.8836C235.934 28.7015 234.506 29.7285 234.057 29.9646C233.609 30.1889 233.042 30.301 232.358 30.301C230.929 30.301 229.814 29.9233 229.011 29.1678C228.22 28.4005 227.825 27.3853 227.825 26.1222C227.825 25.3077 227.96 24.564 228.232 23.8911C228.515 23.2183 228.852 22.687 229.241 22.2975C229.631 21.8961 230.026 21.601 230.428 21.4122C231.112 21.0934 232.222 20.7511 233.756 20.3852C235.303 20.0192 236.832 19.7477 238.343 19.5706C238.354 18.4492 238.219 17.5757 237.935 16.95C237.652 16.3244 237.174 15.8109 236.501 15.4095C235.828 15.0082 235.008 14.8075 234.04 14.8075C233.343 14.8075 232.729 14.9019 232.198 15.0908C231.679 15.2797 231.36 15.439 231.242 15.5689L230.923 16.2063C230.605 16.9146 230.369 17.4694 230.215 17.8708ZM238.343 20.6508C236.808 20.9105 235.498 21.1997 234.412 21.5184C233.326 21.8371 232.558 22.1676 232.11 22.51C231.838 22.7107 231.602 23.0117 231.401 23.413C231.095 24.0033 230.941 24.6584 230.941 25.3785C230.941 26.252 231.183 26.9367 231.667 27.4325C232.151 27.9165 232.824 28.1585 233.686 28.1585C234.477 28.1585 235.256 27.9342 236.023 27.4856C236.802 27.0252 237.575 26.3406 238.343 25.4316V20.6508ZM245 30V28.9907L246.682 28.973C246.93 28.9612 247.119 28.9199 247.249 28.8491C247.391 28.7664 247.497 28.6661 247.568 28.548C247.698 28.3119 247.78 27.8929 247.816 27.2908C247.816 27.1374 247.851 25.4434 247.922 22.209V20.1018C247.922 19.1575 247.904 18.1423 247.869 17.0563C247.833 16.3598 247.774 15.9466 247.692 15.8168C247.621 15.6869 247.491 15.5925 247.302 15.5335C247.113 15.4626 246.346 15.4331 245 15.4449V14.4356C247.385 14.1051 249.126 13.6742 250.224 13.143C250.46 13.025 250.619 12.966 250.702 12.966C250.785 12.966 250.85 12.9955 250.897 13.0545C250.944 13.1135 250.968 13.2021 250.968 13.3201C250.968 13.4027 250.962 13.4972 250.95 13.6034C250.914 14.0284 250.879 14.9255 250.844 16.2949L254.137 13.4795C255.105 13.1253 256.02 12.9483 256.882 12.9483C257.838 12.9483 258.741 13.143 259.591 13.5326C260.453 13.9221 261.096 14.412 261.521 15.0023C261.958 15.5925 262.247 16.3362 262.389 17.2333C262.471 17.7645 262.512 19.246 262.512 21.6778V24.8119C262.512 26.3465 262.554 27.3912 262.636 27.946C262.695 28.3001 262.784 28.548 262.902 28.6897C263.032 28.8195 263.227 28.9022 263.486 28.9376L265.381 28.9907V30C264.224 29.9174 263.262 29.8761 262.495 29.8761C261.834 29.8761 260.736 29.9174 259.201 30C259.367 27.0843 259.449 25.2427 259.449 24.4754V21.5007C259.449 19.6474 259.378 18.4315 259.237 17.8531C259.036 17.0622 258.582 16.4247 257.873 15.9407C257.165 15.4567 256.309 15.2147 255.306 15.2147C254.42 15.2147 253.612 15.4272 252.88 15.8522C252.148 16.2653 251.623 16.7493 251.304 17.3042C250.997 17.8472 250.844 18.7679 250.844 20.0664V22.209C250.914 25.2782 250.95 26.9367 250.95 27.1846C250.973 27.7748 251.044 28.2057 251.162 28.4772C251.21 28.5834 251.28 28.6779 251.375 28.7605C251.469 28.8313 251.617 28.8904 251.817 28.9376C251.888 28.9494 252.538 28.9671 253.765 28.9907V30C252.325 29.9174 251.021 29.8761 249.852 29.8761C248.86 29.8761 247.243 29.9174 245 30ZM266.426 16.1178V15.3741C267.606 14.9255 268.545 14.5242 269.241 14.17C269.241 11.3605 269.206 9.56623 269.135 8.78713C270.363 8.36216 271.36 7.90769 272.127 7.4237L272.552 7.77784C272.422 8.75762 272.281 10.9179 272.127 14.2586C273.072 14.2704 273.638 14.2763 273.827 14.2763C273.933 14.2763 274.541 14.2645 275.651 14.2409C276.265 14.2291 276.725 14.2054 277.032 14.17L277.156 14.294L276.784 15.9407C276.041 15.9289 275.356 15.923 274.73 15.923C274.105 15.923 273.237 15.9289 272.127 15.9407L272.021 23.1474C271.986 24.9063 271.997 25.9569 272.056 26.2993C272.116 26.6416 272.228 26.9426 272.393 27.2023C272.558 27.4502 272.771 27.6509 273.03 27.8043C273.302 27.9578 273.756 28.0758 274.394 28.1585C274.878 28.1585 275.267 28.1408 275.562 28.1054C275.869 28.0581 276.253 27.9519 276.713 27.7866L276.926 28.4772C276.371 28.914 275.834 29.3685 275.315 29.8406C274.866 30.0059 274.447 30.1121 274.057 30.1594C273.668 30.2184 273.219 30.2479 272.712 30.2479C272.086 30.2479 271.584 30.1771 271.207 30.0354C270.841 29.8938 270.504 29.699 270.197 29.4511C269.89 29.1914 269.637 28.8668 269.436 28.4772C269.235 28.0877 269.105 27.4738 269.046 26.6357C269.058 25.833 269.082 24.9535 269.117 23.9974C269.129 23.8085 269.135 23.6019 269.135 23.3776V16.0293H268.409C267.819 16.0293 267.158 16.0588 266.426 16.1178ZM282.557 5.06868C283.112 5.06868 283.578 5.26346 283.956 5.65301C284.345 6.04256 284.54 6.51474 284.54 7.06956C284.54 7.61257 284.345 8.07885 283.956 8.46841C283.566 8.85796 283.1 9.05273 282.557 9.05273C282.002 9.05273 281.53 8.85796 281.14 8.46841C280.751 8.07885 280.556 7.61257 280.556 7.06956C280.556 6.51474 280.751 6.04256 281.14 5.65301C281.53 5.26346 282.002 5.06868 282.557 5.06868ZM278.236 15.4272V14.4179C280.526 14.1582 282.45 13.6624 284.009 12.9305L284.398 13.2139C284.304 15.7282 284.257 17.6524 284.257 18.9863V22.209C284.316 25.2782 284.351 26.9367 284.363 27.1846C284.375 27.7748 284.44 28.2057 284.558 28.4772C284.617 28.5834 284.693 28.6779 284.788 28.7605C284.882 28.8313 285.024 28.8904 285.213 28.9376C285.284 28.9494 285.939 28.9671 287.178 28.9907V30C285.384 29.9174 283.95 29.8761 282.875 29.8761C281.931 29.8761 280.385 29.9174 278.236 30V28.9907L279.918 28.973C280.166 28.9612 280.355 28.9199 280.485 28.8491C280.627 28.7664 280.733 28.6661 280.804 28.548C280.934 28.3119 281.016 27.8929 281.052 27.2908C281.052 27.1374 281.087 25.4434 281.158 22.209V19.0925C281.158 17.3337 281.099 16.289 280.981 15.9584C280.91 15.7814 280.78 15.6515 280.591 15.5689C280.414 15.4744 279.629 15.4272 278.236 15.4272ZM289.338 16.1532V15.4272C290.259 15.0377 291.074 14.6245 291.782 14.1877V13.1253C291.782 11.5907 291.876 10.5106 292.065 9.88496C292.266 9.24751 292.543 8.68089 292.898 8.1851C293.429 7.45321 294.267 6.52065 295.412 5.38741C296.179 4.64372 296.746 4.17743 297.112 3.98856C297.596 3.74066 298.162 3.61671 298.812 3.61671C299.272 3.61671 299.744 3.69344 300.228 3.8469L300.299 6.78625L299.892 6.94561C299.526 6.63869 299.16 6.41441 298.794 6.27275C298.44 6.1311 298.021 6.06027 297.537 6.06027C296.899 6.06027 296.38 6.19012 295.979 6.44982C295.577 6.70952 295.282 7.08137 295.093 7.56535C294.916 8.04934 294.828 9.03503 294.828 10.5224V14.1877H296.705C297.649 14.1877 298.576 14.1523 299.484 14.0815L299.662 14.1877L299.307 16.0115C298.28 15.9643 297.525 15.9407 297.041 15.9407C296.545 15.9407 295.807 15.9643 294.828 16.0115V22.3506C294.828 23.1297 294.857 24.5522 294.916 26.618C294.928 27.3499 294.957 27.8161 295.005 28.0168C295.052 28.2175 295.111 28.3651 295.182 28.4595C295.264 28.5421 295.394 28.613 295.571 28.672C295.925 28.7782 296.882 28.8845 298.44 28.9907V30C295.689 29.9174 294.013 29.8761 293.411 29.8761C292.868 29.8761 291.351 29.9174 288.86 30V28.9907L290.543 28.973C290.79 28.9612 290.979 28.9199 291.109 28.8491C291.251 28.7664 291.357 28.6661 291.428 28.548C291.558 28.3119 291.64 27.8929 291.676 27.2908C291.676 27.1374 291.711 25.4434 291.782 22.209V16.0115L289.338 16.1532Z" fill="black"/>
<defs>
<clipPath id="clip0_10_61">
<rect width="30" height="30" fill="white" transform="translate(0 5)"/>
</clipPath>
</defs>
</svg>
