<svg width="402" height="41" viewBox="0 0 402 41" fill="none" xmlns="http://www.w3.org/2000/svg">
<g clip-path="url(#clip0_10_61)">
<path d="M16.9747 25.4945C15.6209 25.4945 14.3637 25.156 13.2033 24.4791C12.067 23.8022 11.1483 22.8956 10.4472 21.7593C9.77031 20.5989 9.43185 19.3297 9.43185 17.9516C9.43185 16.5978 9.77031 15.3648 10.4472 14.2527C11.1483 13.1165 12.067 12.2099 13.2033 11.533C14.3637 10.856 15.6209 10.5176 16.9747 10.5176C17.7967 10.5176 18.5824 10.6506 19.3318 10.9165C20.0813 11.1582 20.7945 11.5209 21.4714 12.0044L24.8439 8.23297L21.9791 6.81868L28.0714 6.12967L28.1077 12.2582L26.3308 9.53846L22.8857 13.3824C23.4417 14.0593 23.8527 14.7846 24.1187 15.5582C24.3846 16.3077 24.5176 17.1055 24.5176 17.9516C24.5176 19.3297 24.1791 20.5989 23.5022 21.7593C22.8253 22.8956 21.9066 23.8022 20.7461 24.4791C19.6099 25.156 18.3527 25.4945 16.9747 25.4945ZM16.9747 23.6813C18.0143 23.6813 18.9692 23.4275 19.8395 22.9198C20.7099 22.3879 21.3989 21.6868 21.9066 20.8165C22.4384 19.9462 22.7044 18.9912 22.7044 17.9516C22.7044 16.9363 22.4384 16.0055 21.9066 15.1593C21.3989 14.289 20.7099 13.6 19.8395 13.0923C18.9692 12.5846 18.0143 12.3308 16.9747 12.3308C15.9351 12.3308 14.9802 12.5846 14.1099 13.0923C13.2395 13.6 12.5384 14.289 12.0066 15.1593C11.4989 16.0055 11.245 16.9363 11.245 17.9516C11.245 18.9912 11.4989 19.9462 12.0066 20.8165C12.5384 21.6868 13.2395 22.3879 14.1099 22.9198C14.9802 23.4275 15.9351 23.6813 16.9747 23.6813Z" fill="black"/>
<path d="M8.41319 34.0659V30.1495H4.13407V28.4451H8.41319V25.2539C7.18022 25.0846 6.06813 24.6495 5.07692 23.9484C4.08571 23.2473 3.3 22.3528 2.71978 21.2648C2.13956 20.1769 1.84945 19.0044 1.84945 17.7473C1.84945 16.3934 2.18791 15.1605 2.86484 14.0484C3.56593 12.9121 4.48462 12.0055 5.62088 11.3286C6.78132 10.6517 8.03846 10.3132 9.39231 10.3132C10.7703 10.3132 12.0275 10.6517 13.1637 11.3286C14.3242 12.0055 15.2429 12.9121 15.9198 14.0484C16.5967 15.1605 16.9352 16.3934 16.9352 17.7473C16.9352 18.9802 16.6451 20.1407 16.0648 21.2286C15.4846 22.3165 14.6989 23.2231 13.7077 23.9484C12.7407 24.6495 11.6286 25.0846 10.3714 25.2539V28.4451H14.3967V30.1495H10.3714V34.0659H8.41319ZM9.39231 23.4769C10.4319 23.4769 11.3868 23.2231 12.2571 22.7154C13.1275 22.1835 13.8165 21.4824 14.3242 20.6121C14.856 19.7418 15.122 18.7868 15.122 17.7473C15.122 16.7319 14.856 15.8011 14.3242 14.955C13.8165 14.1088 13.1275 13.4319 12.2571 12.9242C11.3868 12.3923 10.4319 12.1264 9.39231 12.1264C8.35275 12.1264 7.3978 12.3923 6.52747 12.9242C5.65714 13.4319 4.95604 14.1088 4.42418 14.955C3.91648 15.8011 3.66264 16.7319 3.66264 17.7473C3.66264 18.7868 3.91648 19.7418 4.42418 20.6121C4.95604 21.4824 5.65714 22.1835 6.52747 22.7154C7.3978 23.2231 8.35275 23.4769 9.39231 23.4769Z" fill="black"/>
</g>
<path d="M43.9031 30V28.9907L45.5675 28.973C45.8272 28.9612 46.022 28.9199 46.1518 28.8491C46.2935 28.7664 46.3997 28.6661 46.4706 28.548C46.6004 28.3119 46.6771 27.8929 46.7007 27.2908C46.7125 27.1374 46.7539 25.4434 46.8247 22.209V14.8606C46.8247 12.8892 46.7893 10.8529 46.7184 8.75172C46.6712 7.33516 46.6063 6.54426 46.5237 6.37899C46.4647 6.26095 46.3702 6.17831 46.2404 6.1311C46.0633 6.04846 45.2488 6.00715 43.7968 6.00715V4.96244C46.4647 4.63191 48.318 4.21875 49.3568 3.72296C49.5102 3.65213 49.6283 3.61671 49.7109 3.61671C49.7935 3.61671 49.8585 3.64623 49.9057 3.70525C49.9529 3.75247 49.9765 3.8233 49.9765 3.91773C49.9765 4.00036 49.9647 4.11841 49.9411 4.27187L49.9234 4.8562C49.8644 6.96922 49.829 8.76942 49.8172 10.2568L49.7817 13.0191V22.209C49.8408 25.2782 49.8762 26.9367 49.888 27.1846C49.8998 27.7748 49.9706 28.2057 50.1005 28.4772C50.1477 28.5834 50.2185 28.6779 50.313 28.7605C50.4074 28.8313 50.549 28.8904 50.7379 28.9376C50.8205 28.9494 51.4757 28.9671 52.7034 28.9907V30C51.098 29.9056 49.6873 29.8583 48.4714 29.8583C47.3146 29.8583 45.7918 29.9056 43.9031 30ZM69.2062 27.2554L68.6396 28.5303C67.8251 29.0379 67.2289 29.3744 66.8512 29.5396C66.2964 29.7875 65.6589 29.9941 64.9389 30.1594C64.2306 30.3364 63.481 30.425 62.6901 30.425C61.1319 30.425 59.7212 30.1003 58.4581 29.4511C57.195 28.8018 56.2093 27.8339 55.5011 26.5472C54.8046 25.2486 54.4564 23.7318 54.4564 21.9965C54.4564 20.639 54.6393 19.4172 55.0053 18.3312C55.383 17.2333 55.808 16.4247 56.2802 15.9053C56.6225 15.5276 57.1537 15.0967 57.8738 14.6127C58.5939 14.1169 59.3081 13.7274 60.0163 13.444C60.9489 13.0545 61.9582 12.8597 63.0442 12.8597C64.3663 12.8597 65.5586 13.1607 66.621 13.7628C67.6952 14.3648 68.4802 15.1852 68.976 16.224C69.4718 17.2628 69.7197 18.4374 69.7197 19.7477C69.7197 20.0782 69.6961 20.4796 69.6489 20.9518C68.799 21.117 68.0376 21.2233 67.3647 21.2705C66.0898 21.3649 64.8149 21.4122 63.54 21.4122H57.8561C57.8797 23.1002 58.1689 24.4695 58.7237 25.5202C59.2904 26.559 60.0636 27.3263 61.0433 27.8221C62.0349 28.3178 63.0619 28.5657 64.1243 28.5657C64.8444 28.5657 65.5586 28.4536 66.2669 28.2293C66.987 27.9932 67.8723 27.5683 68.9229 26.9544L69.2062 27.2554ZM57.8561 20.0133C58.1866 20.0487 58.8123 20.0841 59.733 20.1195C61.4919 20.1786 62.7019 20.2081 63.3629 20.2081C64.933 20.2081 65.9659 20.1786 66.4616 20.1195C66.4735 19.8362 66.4794 19.6179 66.4794 19.4644C66.4794 17.5993 66.1016 16.2299 65.3461 15.3564C64.5906 14.4829 63.5813 14.0461 62.3182 14.0461C60.9843 14.0461 59.9101 14.5242 59.0956 15.4803C58.2811 16.4365 57.8679 17.9475 57.8561 20.0133ZM99.6267 14.3294L99.7683 14.6658C99.308 15.3623 99.0069 15.8404 98.8653 16.1001H95.5718C95.8433 16.7966 95.9791 17.4517 95.9791 18.0655C95.9791 18.9627 95.743 19.8421 95.2708 20.7039C94.8104 21.5538 94.1316 22.2857 93.2345 22.8995C92.3373 23.5016 91.3812 23.9088 90.366 24.1213C89.7049 24.263 88.8137 24.322 87.6922 24.2984C86.9249 24.9122 86.4409 25.3726 86.2403 25.6795C86.1104 25.892 86.0455 26.1222 86.0455 26.3701C86.0455 26.6534 86.1281 26.9072 86.2934 27.1315C86.4704 27.344 86.7361 27.4915 87.0902 27.5742C87.6214 27.7158 88.5658 27.7866 89.9233 27.7866L93.748 27.7158C95.0819 27.7158 96.0912 27.8929 96.7759 28.247C97.4723 28.5894 97.9858 29.1206 98.3164 29.8406C98.6469 30.5489 98.8122 31.3516 98.8122 32.2488C98.8122 33.4647 98.4108 34.6982 97.6081 35.9495C96.8172 37.2126 95.6367 38.2042 94.0667 38.9243C92.4967 39.6562 90.7378 40.0221 88.7901 40.0221C87.161 40.0221 85.774 39.7683 84.6289 39.2607C83.4839 38.7531 82.634 38.0743 82.0791 37.2244C81.5361 36.3745 81.2646 35.4832 81.2646 34.5507C81.2646 34.0313 81.3413 33.5414 81.4948 33.081C81.6601 32.6324 81.9316 32.1484 82.3093 31.629C83.7495 30.968 84.7824 30.3896 85.408 29.8938C84.4283 29.575 83.7967 29.274 83.5134 28.9907C83.2419 28.7074 83.1061 28.4241 83.1061 28.1408C83.1061 27.9047 83.2832 27.2672 83.6373 26.2284C84.2158 25.7444 85.1247 25.0598 86.3642 24.1744C85.3018 23.8793 84.4814 23.537 83.9029 23.1474C83.3363 22.7461 82.8937 22.209 82.5749 21.5361C82.2562 20.8514 82.0968 20.1018 82.0968 19.2873C82.0968 18.0833 82.4038 17.009 83.0176 16.0647C83.6314 15.1085 84.6643 14.3353 86.1163 13.7451C87.5683 13.143 88.914 12.842 90.1535 12.842C90.9562 12.842 91.7176 12.9719 92.4377 13.2316C93.1696 13.4913 93.8601 13.8808 94.5094 14.4002C96.7286 14.3884 98.4344 14.3648 99.6267 14.3294ZM85.1424 18.3134C85.1424 19.1516 85.2959 19.9661 85.6028 20.757C85.9215 21.5479 86.3819 22.144 86.9839 22.5454C87.5978 22.9468 88.2943 23.1474 89.0734 23.1474C90.0886 23.1474 90.9857 22.8228 91.7648 22.1735C92.5439 21.5125 92.9335 20.456 92.9335 19.004C92.9335 17.5166 92.5439 16.3362 91.7648 15.4626C90.9857 14.5773 90.0472 14.1346 88.9494 14.1346C87.8044 14.1346 86.8836 14.5006 86.1871 15.2324C85.4907 15.9525 85.1424 16.9795 85.1424 18.3134ZM90.3306 30.1948C88.5717 30.1948 87.4679 30.2184 87.0194 30.2656C86.7951 30.301 86.5413 30.4191 86.258 30.6197C85.3254 31.2808 84.8296 31.6467 84.7706 31.7176C84.6525 31.8356 84.5227 32.0776 84.381 32.4436C84.1331 33.1046 84.0092 33.7716 84.0092 34.4444C84.0092 35.6839 84.4873 36.7286 85.4434 37.5786C86.4114 38.4403 87.7394 38.8712 89.4275 38.8712C90.6788 38.8712 91.8179 38.6174 92.8449 38.1098C93.8837 37.614 94.6628 36.9293 95.1822 36.0558C95.7134 35.194 95.9791 34.3264 95.9791 33.4528C95.9436 32.6974 95.8256 32.1248 95.6249 31.7353C95.436 31.3457 95.1999 31.0388 94.9166 30.8145C94.6451 30.5902 94.2674 30.4073 93.7834 30.2656C93.5001 30.2302 92.3491 30.2066 90.3306 30.1948ZM115.846 27.2554L115.28 28.5303C114.465 29.0379 113.869 29.3744 113.491 29.5396C112.936 29.7875 112.299 29.9941 111.579 30.1594C110.871 30.3364 110.121 30.425 109.33 30.425C107.772 30.425 106.361 30.1003 105.098 29.4511C103.835 28.8018 102.849 27.8339 102.141 26.5472C101.445 25.2486 101.096 23.7318 101.096 21.9965C101.096 20.639 101.279 19.4172 101.645 18.3312C102.023 17.2333 102.448 16.4247 102.92 15.9053C103.262 15.5276 103.794 15.0967 104.514 14.6127C105.234 14.1169 105.948 13.7274 106.656 13.444C107.589 13.0545 108.598 12.8597 109.684 12.8597C111.006 12.8597 112.199 13.1607 113.261 13.7628C114.335 14.3648 115.12 15.1852 115.616 16.224C116.112 17.2628 116.36 18.4374 116.36 19.7477C116.36 20.0782 116.336 20.4796 116.289 20.9518C115.439 21.117 114.678 21.2233 114.005 21.2705C112.73 21.3649 111.455 21.4122 110.18 21.4122H104.496C104.52 23.1002 104.809 24.4695 105.364 25.5202C105.93 26.559 106.704 27.3263 107.683 27.8221C108.675 28.3178 109.702 28.5657 110.764 28.5657C111.484 28.5657 112.199 28.4536 112.907 28.2293C113.627 27.9932 114.512 27.5683 115.563 26.9544L115.846 27.2554ZM104.496 20.0133C104.827 20.0487 105.452 20.0841 106.373 20.1195C108.132 20.1786 109.342 20.2081 110.003 20.2081C111.573 20.2081 112.606 20.1786 113.102 20.1195C113.113 19.8362 113.119 19.6179 113.119 19.4644C113.119 17.5993 112.742 16.2299 111.986 15.3564C111.231 14.4829 110.221 14.0461 108.958 14.0461C107.624 14.0461 106.55 14.5242 105.736 15.4803C104.921 16.4365 104.508 17.9475 104.496 20.0133ZM118.077 30V28.9907L119.759 28.973C120.007 28.9612 120.196 28.9199 120.326 28.8491C120.468 28.7664 120.574 28.6661 120.645 28.548C120.775 28.3119 120.857 27.8929 120.893 27.2908C120.893 27.1374 120.928 25.4434 120.999 22.209V20.1018C120.999 19.1575 120.981 18.1423 120.946 17.0563C120.91 16.3598 120.851 15.9466 120.769 15.8168C120.698 15.6869 120.568 15.5925 120.379 15.5335C120.19 15.4626 119.423 15.4331 118.077 15.4449V14.4356C120.462 14.1051 122.203 13.6742 123.301 13.143C123.537 13.025 123.696 12.966 123.779 12.966C123.862 12.966 123.926 12.9955 123.974 13.0545C124.021 13.1135 124.044 13.2021 124.044 13.3201C124.044 13.4027 124.039 13.4972 124.027 13.6034C123.991 14.0284 123.956 14.9255 123.921 16.2949L127.214 13.4795C128.182 13.1253 129.097 12.9483 129.959 12.9483C130.915 12.9483 131.818 13.143 132.668 13.5326C133.529 13.9221 134.173 14.412 134.598 15.0023C135.035 15.5925 135.324 16.3362 135.465 17.2333C135.548 17.7645 135.589 19.246 135.589 21.6778V24.8119C135.589 26.3465 135.631 27.3912 135.713 27.946C135.772 28.3001 135.861 28.548 135.979 28.6897C136.109 28.8195 136.304 28.9022 136.563 28.9376L138.458 28.9907V30C137.301 29.9174 136.339 29.8761 135.572 29.8761C134.911 29.8761 133.813 29.9174 132.278 30C132.443 27.0843 132.526 25.2427 132.526 24.4754V21.5007C132.526 19.6474 132.455 18.4315 132.314 17.8531C132.113 17.0622 131.658 16.4247 130.95 15.9407C130.242 15.4567 129.386 15.2147 128.383 15.2147C127.497 15.2147 126.689 15.4272 125.957 15.8522C125.225 16.2653 124.7 16.7493 124.381 17.3042C124.074 17.8472 123.921 18.7679 123.921 20.0664V22.209C123.991 25.2782 124.027 26.9367 124.027 27.1846C124.05 27.7748 124.121 28.2057 124.239 28.4772C124.286 28.5834 124.357 28.6779 124.452 28.7605C124.546 28.8313 124.694 28.8904 124.894 28.9376C124.965 28.9494 125.615 28.9671 126.842 28.9907V30C125.402 29.9174 124.098 29.8761 122.929 29.8761C121.937 29.8761 120.32 29.9174 118.077 30ZM139.52 30V28.9907C140.854 28.9671 141.574 28.9435 141.681 28.9199C141.881 28.8845 142.029 28.8313 142.123 28.7605C142.229 28.6779 142.312 28.5657 142.371 28.4241C142.489 28.1526 142.56 27.7276 142.584 27.1492C142.654 23.9974 142.69 22.3506 142.69 22.209V20.1018C142.69 19.1575 142.672 18.1423 142.637 17.0563C142.613 16.3598 142.56 15.9466 142.477 15.8168C142.407 15.6869 142.271 15.5925 142.07 15.5335C141.881 15.4626 141.114 15.4331 139.768 15.4449V14.4356C142.153 14.1051 143.894 13.6742 144.992 13.143C145.228 13.025 145.387 12.966 145.47 12.966C145.552 12.966 145.617 12.9955 145.665 13.0545C145.712 13.1135 145.735 13.2021 145.735 13.3201C145.735 13.4027 145.73 13.4972 145.718 13.6034C145.659 14.3235 145.623 15.439 145.612 16.95C146.143 16.3362 146.633 15.7282 147.081 15.1262C147.53 14.5242 147.854 14.1346 148.055 13.9575C148.409 13.6506 148.816 13.4086 149.277 13.2316C149.737 13.0427 150.215 12.9483 150.711 12.9483C151.207 12.9483 151.697 13.0545 152.181 13.267L152.287 13.5149C152.11 15.0849 152.01 16.466 151.986 17.6583H151.189C150.918 17.0917 150.599 16.6785 150.233 16.4188C149.879 16.1591 149.43 16.0293 148.887 16.0293C147.978 16.0293 147.205 16.407 146.568 17.1625C145.93 17.9062 145.612 19.0276 145.612 20.5268V22.3506C145.612 23.1297 145.641 24.5522 145.7 26.618C145.712 27.3499 145.741 27.8161 145.789 28.0168C145.836 28.2175 145.895 28.3651 145.966 28.4595C146.048 28.5421 146.178 28.613 146.355 28.672C146.709 28.7782 147.666 28.8845 149.224 28.9907V30C147.146 29.9174 145.375 29.8761 143.912 29.8761C142.401 29.8761 140.937 29.9174 139.52 30ZM168.046 27.2554L167.48 28.5303C166.665 29.0379 166.069 29.3744 165.691 29.5396C165.136 29.7875 164.499 29.9941 163.779 30.1594C163.071 30.3364 162.321 30.425 161.53 30.425C159.972 30.425 158.561 30.1003 157.298 29.4511C156.035 28.8018 155.049 27.8339 154.341 26.5472C153.645 25.2486 153.296 23.7318 153.296 21.9965C153.296 20.639 153.479 19.4172 153.845 18.3312C154.223 17.2333 154.648 16.4247 155.12 15.9053C155.462 15.5276 155.994 15.0967 156.714 14.6127C157.434 14.1169 158.148 13.7274 158.856 13.444C159.789 13.0545 160.798 12.8597 161.884 12.8597C163.206 12.8597 164.399 13.1607 165.461 13.7628C166.535 14.3648 167.32 15.1852 167.816 16.224C168.312 17.2628 168.56 18.4374 168.56 19.7477C168.56 20.0782 168.536 20.4796 168.489 20.9518C167.639 21.117 166.877 21.2233 166.205 21.2705C164.93 21.3649 163.655 21.4122 162.38 21.4122H156.696C156.72 23.1002 157.009 24.4695 157.564 25.5202C158.13 26.559 158.903 27.3263 159.883 27.8221C160.875 28.3178 161.902 28.5657 162.964 28.5657C163.684 28.5657 164.399 28.4536 165.107 28.2293C165.827 27.9932 166.712 27.5683 167.763 26.9544L168.046 27.2554ZM156.696 20.0133C157.027 20.0487 157.652 20.0841 158.573 20.1195C160.332 20.1786 161.542 20.2081 162.203 20.2081C163.773 20.2081 164.806 20.1786 165.302 20.1195C165.313 19.8362 165.319 19.6179 165.319 19.4644C165.319 17.5993 164.942 16.2299 164.186 15.3564C163.431 14.4829 162.421 14.0461 161.158 14.0461C159.824 14.0461 158.75 14.5242 157.936 15.4803C157.121 16.4365 156.708 17.9475 156.696 20.0133ZM190.87 5.95403V4.94473C192.181 4.80308 193.284 4.63781 194.182 4.44894C195.09 4.24826 195.976 4.00627 196.838 3.72296L197.068 3.88232C197.021 4.88571 196.967 6.82166 196.908 9.69018L196.838 12.5233V23.6078C196.838 24.8119 196.855 25.8566 196.891 26.7419C196.938 27.6155 197.015 28.1408 197.121 28.3178C197.227 28.4831 197.404 28.6189 197.652 28.7251C197.9 28.8313 198.638 28.9376 199.865 29.0438V30C198.425 29.9174 197.41 29.8761 196.82 29.8761C196.312 29.8761 195.273 29.9174 193.703 30C193.739 29.1855 193.768 28.0877 193.792 26.7065C193.32 27.0488 192.682 27.5623 191.88 28.247C191.089 28.9317 190.469 29.4924 190.02 29.9292C189.076 30.1653 188.244 30.2833 187.524 30.2833C186.19 30.2833 184.962 29.9528 183.841 29.2917C182.719 28.6307 181.852 27.6745 181.238 26.4232C180.636 25.1601 180.335 23.7436 180.335 22.1735C180.335 20.9931 180.518 19.8776 180.884 18.8269C181.261 17.7645 181.734 16.9441 182.3 16.3657C182.619 16.0352 183.345 15.5335 184.478 14.8606C185.611 14.1877 186.526 13.7037 187.223 13.4086C187.931 13.1017 188.698 12.9483 189.525 12.9483C190.268 12.9483 190.994 13.0427 191.703 13.2316C192.423 13.4086 193.119 13.686 193.792 14.0638V9.40687C193.792 7.76603 193.721 6.76854 193.579 6.41441C193.532 6.28455 193.444 6.19012 193.314 6.1311C193.078 6.02485 192.263 5.96583 190.87 5.95403ZM193.792 17.0917C192.989 16.2063 192.145 15.563 191.26 15.1616C190.386 14.7485 189.525 14.5419 188.675 14.5419C187.707 14.5419 186.815 14.7898 186.001 15.2856C185.186 15.7814 184.561 16.5309 184.124 17.5343C183.699 18.5377 183.487 19.7418 183.487 21.1465C183.487 23.3068 184.024 24.9948 185.098 26.2107C186.172 27.4266 187.465 28.0345 188.976 28.0345C189.767 28.0345 190.475 27.8693 191.101 27.5387C191.726 27.2082 192.275 26.7242 192.747 26.0868C193.219 25.4493 193.52 24.741 193.65 23.9619C193.745 23.4425 193.792 22.1617 193.792 20.1195V17.0917ZM216.669 27.2554L216.103 28.5303C215.288 29.0379 214.692 29.3744 214.314 29.5396C213.759 29.7875 213.122 29.9941 212.402 30.1594C211.694 30.3364 210.944 30.425 210.153 30.425C208.595 30.425 207.184 30.1003 205.921 29.4511C204.658 28.8018 203.672 27.8339 202.964 26.5472C202.268 25.2486 201.919 23.7318 201.919 21.9965C201.919 20.639 202.102 19.4172 202.468 18.3312C202.846 17.2333 203.271 16.4247 203.743 15.9053C204.086 15.5276 204.617 15.0967 205.337 14.6127C206.057 14.1169 206.771 13.7274 207.479 13.444C208.412 13.0545 209.421 12.8597 210.507 12.8597C211.829 12.8597 213.022 13.1607 214.084 13.7628C215.158 14.3648 215.943 15.1852 216.439 16.224C216.935 17.2628 217.183 18.4374 217.183 19.7477C217.183 20.0782 217.159 20.4796 217.112 20.9518C216.262 21.117 215.501 21.2233 214.828 21.2705C213.553 21.3649 212.278 21.4122 211.003 21.4122H205.319C205.343 23.1002 205.632 24.4695 206.187 25.5202C206.753 26.559 207.527 27.3263 208.506 27.8221C209.498 28.3178 210.525 28.5657 211.587 28.5657C212.308 28.5657 213.022 28.4536 213.73 28.2293C214.45 27.9932 215.335 27.5683 216.386 26.9544L216.669 27.2554ZM205.319 20.0133C205.65 20.0487 206.275 20.0841 207.196 20.1195C208.955 20.1786 210.165 20.2081 210.826 20.2081C212.396 20.2081 213.429 20.1786 213.925 20.1195C213.937 19.8362 213.942 19.6179 213.942 19.4644C213.942 17.5993 213.565 16.2299 212.809 15.3564C212.054 14.4829 211.044 14.0461 209.781 14.0461C208.447 14.0461 207.373 14.5242 206.559 15.4803C205.744 16.4365 205.331 17.9475 205.319 20.0133ZM220.051 24.6525H221.114C221.126 25.3372 221.161 25.8802 221.22 26.2816C221.279 26.6829 221.379 27.0784 221.521 27.4679C221.663 27.8457 221.881 28.1703 222.176 28.4418C222.471 28.7015 222.79 28.9081 223.132 29.0615C223.486 29.2032 223.841 29.2976 224.195 29.3448C224.561 29.3921 225.11 29.4157 225.841 29.4157C227.046 29.4157 228.031 29.0969 228.799 28.4595C229.578 27.8221 229.967 26.9485 229.967 25.8389C229.967 25.3431 229.843 24.9063 229.595 24.5286C229.359 24.1508 229.011 23.8557 228.551 23.6432C228.102 23.4307 227.128 23.1533 225.629 22.811C224.13 22.4687 223.162 22.2208 222.725 22.0673C222.064 21.8194 221.539 21.5184 221.149 21.1643C220.76 20.8101 220.447 20.3615 220.211 19.8185C219.986 19.2755 219.874 18.6853 219.874 18.0478C219.874 17.1153 220.116 16.2594 220.6 15.4803C221.096 14.6894 221.869 14.052 222.92 13.568C223.97 13.0722 225.115 12.8243 226.355 12.8243C227.099 12.8243 227.96 12.9305 228.94 13.143C229.92 13.3437 230.717 13.5975 231.331 13.9044C231.248 15.2147 231.189 16.5487 231.154 17.9062H230.144C230.085 17.0444 230.014 16.4778 229.932 16.2063C229.861 15.9348 229.761 15.6928 229.631 15.4803C229.501 15.2679 229.277 15.0436 228.958 14.8075C228.639 14.5596 228.226 14.3412 227.718 14.1523C227.223 13.9634 226.609 13.869 225.877 13.869C224.838 13.869 224 14.1759 223.363 14.7898C222.737 15.4036 222.424 16.1237 222.424 16.95C222.424 17.4104 222.513 17.8058 222.69 18.1364C222.879 18.4669 223.126 18.7384 223.433 18.9509C223.74 19.1516 224.171 19.3345 224.726 19.4998L227.665 20.2258C229.153 20.6035 230.174 20.9282 230.729 21.1997C231.295 21.4712 231.75 21.8961 232.092 22.4746C232.434 23.0412 232.606 23.7259 232.606 24.5286C232.606 26.1222 231.944 27.5151 230.622 28.7074C229.312 29.8879 227.553 30.4781 225.346 30.4781C224.33 30.4781 222.979 30.3246 221.291 30.0177C220.358 29.8406 219.857 29.7167 219.786 29.6459C219.738 29.6104 219.715 29.5514 219.715 29.4688C219.715 29.3862 219.727 29.2858 219.75 29.1678C219.857 28.6602 219.927 28.1644 219.963 27.6804C219.998 27.1964 220.028 26.1871 220.051 24.6525ZM244.487 24.6525H245.549C245.561 25.3372 245.596 25.8802 245.656 26.2816C245.715 26.6829 245.815 27.0784 245.957 27.4679C246.098 27.8457 246.317 28.1703 246.612 28.4418C246.907 28.7015 247.226 28.9081 247.568 29.0615C247.922 29.2032 248.276 29.2976 248.63 29.3448C248.996 29.3921 249.545 29.4157 250.277 29.4157C251.481 29.4157 252.467 29.0969 253.234 28.4595C254.013 27.8221 254.403 26.9485 254.403 25.8389C254.403 25.3431 254.279 24.9063 254.031 24.5286C253.795 24.1508 253.447 23.8557 252.986 23.6432C252.538 23.4307 251.564 23.1533 250.065 22.811C248.565 22.4687 247.597 22.2208 247.161 22.0673C246.5 21.8194 245.974 21.5184 245.585 21.1643C245.195 20.8101 244.882 20.3615 244.646 19.8185C244.422 19.2755 244.31 18.6853 244.31 18.0478C244.31 17.1153 244.552 16.2594 245.036 15.4803C245.532 14.6894 246.305 14.052 247.355 13.568C248.406 13.0722 249.551 12.8243 250.791 12.8243C251.534 12.8243 252.396 12.9305 253.376 13.143C254.355 13.3437 255.152 13.5975 255.766 13.9044C255.684 15.2147 255.624 16.5487 255.589 17.9062H254.58C254.521 17.0444 254.45 16.4778 254.367 16.2063C254.296 15.9348 254.196 15.6928 254.066 15.4803C253.936 15.2679 253.712 15.0436 253.393 14.8075C253.075 14.5596 252.662 14.3412 252.154 14.1523C251.658 13.9634 251.044 13.869 250.312 13.869C249.274 13.869 248.435 14.1759 247.798 14.7898C247.172 15.4036 246.86 16.1237 246.86 16.95C246.86 17.4104 246.948 17.8058 247.125 18.1364C247.314 18.4669 247.562 18.7384 247.869 18.9509C248.176 19.1516 248.607 19.3345 249.161 19.4998L252.101 20.2258C253.588 20.6035 254.609 20.9282 255.164 21.1997C255.731 21.4712 256.185 21.8961 256.528 22.4746C256.87 23.0412 257.041 23.7259 257.041 24.5286C257.041 26.1222 256.38 27.5151 255.058 28.7074C253.748 29.8879 251.989 30.4781 249.781 30.4781C248.766 30.4781 247.414 30.3246 245.726 30.0177C244.794 29.8406 244.292 29.7167 244.221 29.6459C244.174 29.6104 244.15 29.5514 244.15 29.4688C244.15 29.3862 244.162 29.2858 244.186 29.1678C244.292 28.6602 244.363 28.1644 244.398 27.6804C244.434 27.1964 244.463 26.1871 244.487 24.6525ZM279.157 28.9907V30C277.611 29.9174 276.442 29.8761 275.651 29.8761C274.777 29.8761 273.892 29.9174 272.995 30C273.066 29.0438 273.119 27.9696 273.154 26.7773C272.446 27.344 271.602 28.1172 270.622 29.0969C270.398 29.3212 270.18 29.4865 269.967 29.5927C269.459 29.8761 268.952 30.0767 268.444 30.1948C267.937 30.3246 267.329 30.3896 266.62 30.3896C265.664 30.3896 264.862 30.2597 264.212 30C263.575 29.7403 263.026 29.3448 262.566 28.8136C262.223 28.4241 261.958 27.9224 261.769 27.3086C261.592 26.6829 261.503 25.9333 261.503 25.0598C261.503 24.6466 261.515 24.2571 261.539 23.8911C261.574 23.5252 261.592 23.1651 261.592 22.811V19.7831C261.592 19.4762 261.574 18.703 261.539 17.4635C261.515 16.6844 261.462 16.1768 261.379 15.9407C261.332 15.8227 261.255 15.7282 261.149 15.6574C260.972 15.5394 260.659 15.4803 260.211 15.4803C259.561 15.4803 259.048 15.4744 258.67 15.4626V14.4533C261.208 14.17 263.05 13.7156 264.195 13.0899C264.384 12.9837 264.531 12.9305 264.637 12.9305C264.72 12.9305 264.785 12.9601 264.832 13.0191C264.891 13.0781 264.921 13.1666 264.921 13.2847C264.921 13.3791 264.915 13.4972 264.903 13.6388C264.856 14.0166 264.814 14.7426 264.779 15.8168C264.708 17.7881 264.673 19.1103 264.673 19.7831V23.236C264.673 24.6761 264.767 25.6913 264.956 26.2816C265.157 26.86 265.534 27.3263 266.089 27.6804C266.656 28.0227 267.352 28.1939 268.179 28.1939C268.745 28.1939 269.306 28.0995 269.861 27.9106C270.427 27.7099 270.935 27.4266 271.384 27.0607C271.714 26.7891 272.051 26.4232 272.393 25.9628C272.653 25.6205 272.824 25.3608 272.906 25.1837C272.989 24.9948 273.042 24.7233 273.066 24.3692C273.125 23.3304 273.154 22.2975 273.154 21.2705V19.7831C273.154 19.4762 273.137 18.703 273.101 17.4635C273.078 16.6844 273.024 16.1768 272.942 15.9407C272.895 15.8227 272.818 15.7282 272.712 15.6574C272.535 15.5394 272.222 15.4803 271.773 15.4803C271.124 15.4803 270.61 15.4744 270.233 15.4626V14.4533C272.771 14.17 274.612 13.7156 275.757 13.0899C275.946 12.9837 276.094 12.9305 276.2 12.9305C276.283 12.9305 276.347 12.9601 276.395 13.0191C276.454 13.0781 276.483 13.1666 276.483 13.2847C276.483 13.3791 276.477 13.4972 276.466 13.6388C276.43 14.0166 276.389 14.7662 276.342 15.8876C276.271 17.8117 276.235 19.1103 276.235 19.7831V22.209L276.271 24.6702C276.306 26.0986 276.33 26.9367 276.342 27.1846C276.353 27.7748 276.418 28.2057 276.536 28.4772C276.595 28.5834 276.672 28.6779 276.767 28.7605C276.861 28.8313 277.003 28.8904 277.192 28.9376C277.262 28.9494 277.917 28.9671 279.157 28.9907ZM282.397 30.0708C282.539 28.5834 282.616 27.645 282.628 27.2554C282.698 24.6938 282.734 23.1887 282.734 22.7402V14.8606C282.734 12.8892 282.698 10.8529 282.628 8.75172C282.58 7.33516 282.515 6.54426 282.433 6.37899C282.374 6.26095 282.279 6.17831 282.149 6.1311C281.972 6.04846 281.158 6.00715 279.706 6.00715V4.96244C282.374 4.63191 284.227 4.21875 285.266 3.72296C285.419 3.65213 285.537 3.61671 285.62 3.61671C285.703 3.61671 285.768 3.64623 285.815 3.70525C285.862 3.75247 285.886 3.8233 285.886 3.91773C285.886 4.00036 285.874 4.11841 285.85 4.27187L285.832 4.8562C285.773 6.96922 285.738 8.76942 285.726 10.2568L285.691 13.0191V16.525L288.134 14.1346C288.453 13.8631 288.978 13.5975 289.71 13.3378C290.442 13.0781 291.221 12.9483 292.048 12.9483C293.346 12.9483 294.497 13.2552 295.5 13.869C296.504 14.471 297.271 15.3269 297.802 16.4365C298.345 17.5461 298.617 18.7738 298.617 20.1195C298.617 21.1584 298.463 22.144 298.156 23.0766C297.85 24.0092 297.454 24.8414 296.97 25.5733C296.616 26.1281 296.315 26.5058 296.067 26.7065L293.482 28.5657C292.431 29.3448 291.611 29.8406 291.021 30.0531C290.43 30.2774 289.675 30.3896 288.754 30.3896C287.963 30.3896 287.231 30.2833 286.558 30.0708C285.886 29.8583 285.171 29.4865 284.416 28.9553L282.982 30.301L282.397 30.0708ZM285.691 18.6499V25.29C285.691 25.8802 285.72 26.2579 285.779 26.4232C285.85 26.5885 286.051 26.8069 286.381 27.0784C286.877 27.4915 287.45 27.8221 288.099 28.0699C288.76 28.3178 289.456 28.4418 290.188 28.4418C291.9 28.4418 293.216 27.7807 294.137 26.4586C295.058 25.1365 295.518 23.5016 295.518 21.5538C295.518 20.1727 295.3 19.0158 294.863 18.0833C294.426 17.1507 293.824 16.4542 293.057 15.9938C292.29 15.5217 291.428 15.2856 290.472 15.2856C289.35 15.2856 288.347 15.6102 287.461 16.2594C286.576 16.8969 285.986 17.6937 285.691 18.6499ZM301.822 24.6525H302.884C302.896 25.3372 302.931 25.8802 302.99 26.2816C303.049 26.6829 303.15 27.0784 303.291 27.4679C303.433 27.8457 303.652 28.1703 303.947 28.4418C304.242 28.7015 304.56 28.9081 304.903 29.0615C305.257 29.2032 305.611 29.2976 305.965 29.3448C306.331 29.3921 306.88 29.4157 307.612 29.4157C308.816 29.4157 309.802 29.0969 310.569 28.4595C311.348 27.8221 311.738 26.9485 311.738 25.8389C311.738 25.3431 311.614 24.9063 311.366 24.5286C311.13 24.1508 310.781 23.8557 310.321 23.6432C309.873 23.4307 308.899 23.1533 307.399 22.811C305.9 22.4687 304.932 22.2208 304.496 22.0673C303.834 21.8194 303.309 21.5184 302.92 21.1643C302.53 20.8101 302.217 20.3615 301.981 19.8185C301.757 19.2755 301.645 18.6853 301.645 18.0478C301.645 17.1153 301.887 16.2594 302.371 15.4803C302.866 14.6894 303.64 14.052 304.69 13.568C305.741 13.0722 306.886 12.8243 308.125 12.8243C308.869 12.8243 309.731 12.9305 310.711 13.143C311.69 13.3437 312.487 13.5975 313.101 13.9044C313.018 15.2147 312.959 16.5487 312.924 17.9062H311.915C311.856 17.0444 311.785 16.4778 311.702 16.2063C311.631 15.9348 311.531 15.6928 311.401 15.4803C311.271 15.2679 311.047 15.0436 310.728 14.8075C310.41 14.5596 309.996 14.3412 309.489 14.1523C308.993 13.9634 308.379 13.869 307.647 13.869C306.609 13.869 305.77 14.1759 305.133 14.7898C304.507 15.4036 304.195 16.1237 304.195 16.95C304.195 17.4104 304.283 17.8058 304.46 18.1364C304.649 18.4669 304.897 18.7384 305.204 18.9509C305.511 19.1516 305.942 19.3345 306.496 19.4998L309.436 20.2258C310.923 20.6035 311.944 20.9282 312.499 21.1997C313.066 21.4712 313.52 21.8961 313.862 22.4746C314.205 23.0412 314.376 23.7259 314.376 24.5286C314.376 26.1222 313.715 27.5151 312.393 28.7074C311.083 29.8879 309.324 30.4781 307.116 30.4781C306.101 30.4781 304.749 30.3246 303.061 30.0177C302.129 29.8406 301.627 29.7167 301.556 29.6459C301.509 29.6104 301.485 29.5514 301.485 29.4688C301.485 29.3862 301.497 29.2858 301.521 29.1678C301.627 28.6602 301.698 28.1644 301.733 27.6804C301.769 27.1964 301.798 26.1871 301.822 24.6525ZM316.359 16.1178V15.3741C317.54 14.9255 318.478 14.5242 319.175 14.17C319.175 11.3605 319.139 9.56623 319.068 8.78713C320.296 8.36216 321.293 7.90769 322.061 7.4237L322.486 7.77784C322.356 8.75762 322.214 10.9179 322.061 14.2586C323.005 14.2704 323.572 14.2763 323.761 14.2763C323.867 14.2763 324.475 14.2645 325.584 14.2409C326.198 14.2291 326.659 14.2054 326.966 14.17L327.09 14.294L326.718 15.9407C325.974 15.9289 325.289 15.923 324.664 15.923C324.038 15.923 323.17 15.9289 322.061 15.9407L321.955 23.1474C321.919 24.9063 321.931 25.9569 321.99 26.2993C322.049 26.6416 322.161 26.9426 322.326 27.2023C322.492 27.4502 322.704 27.6509 322.964 27.8043C323.235 27.9578 323.69 28.0758 324.327 28.1585C324.811 28.1585 325.201 28.1408 325.496 28.1054C325.803 28.0581 326.186 27.9519 326.647 27.7866L326.859 28.4772C326.305 28.914 325.767 29.3685 325.248 29.8406C324.799 30.0059 324.38 30.1121 323.991 30.1594C323.601 30.2184 323.153 30.2479 322.645 30.2479C322.019 30.2479 321.518 30.1771 321.14 30.0354C320.774 29.8938 320.438 29.699 320.131 29.4511C319.824 29.1914 319.57 28.8668 319.369 28.4772C319.169 28.0877 319.039 27.4738 318.98 26.6357C318.992 25.833 319.015 24.9535 319.051 23.9974C319.062 23.8085 319.068 23.6019 319.068 23.3776V16.0293H318.342C317.752 16.0293 317.091 16.0588 316.359 16.1178ZM331.215 17.8708L330.277 17.6229C330.289 17.3514 330.295 16.9795 330.295 16.5073C330.295 16.0115 330.289 15.6161 330.277 15.321C331.776 14.3412 333.004 13.6801 333.96 13.3378C334.692 13.0899 335.512 12.966 336.421 12.966C337.767 12.966 338.9 13.2198 339.821 13.7274C340.742 14.235 341.426 14.9609 341.875 15.9053C342.182 16.5664 342.335 17.4694 342.335 18.6145L342.264 21.8548V27.1315C342.264 27.6981 342.312 28.1054 342.406 28.3533C342.477 28.5303 342.589 28.6602 342.742 28.7428C342.861 28.8136 343.108 28.8609 343.486 28.8845L344.637 28.9907V30C343.669 29.9174 342.819 29.8761 342.087 29.8761C341.379 29.8761 340.435 29.9174 339.254 30L339.343 26.8836C336.935 28.7015 335.506 29.7285 335.058 29.9646C334.609 30.1889 334.042 30.301 333.358 30.301C331.929 30.301 330.814 29.9233 330.011 29.1678C329.22 28.4005 328.825 27.3853 328.825 26.1222C328.825 25.3077 328.961 24.564 329.232 23.8911C329.515 23.2183 329.852 22.687 330.241 22.2975C330.631 21.8961 331.026 21.601 331.428 21.4122C332.112 21.0934 333.222 20.7511 334.757 20.3852C336.303 20.0192 337.832 19.7477 339.343 19.5706C339.355 18.4492 339.219 17.5757 338.935 16.95C338.652 16.3244 338.174 15.8109 337.501 15.4095C336.828 15.0082 336.008 14.8075 335.04 14.8075C334.343 14.8075 333.73 14.9019 333.198 15.0908C332.679 15.2797 332.36 15.439 332.242 15.5689L331.924 16.2063C331.605 16.9146 331.369 17.4694 331.215 17.8708ZM339.343 20.6508C337.808 20.9105 336.498 21.1997 335.412 21.5184C334.326 21.8371 333.558 22.1676 333.11 22.51C332.838 22.7107 332.602 23.0117 332.402 23.413C332.095 24.0033 331.941 24.6584 331.941 25.3785C331.941 26.252 332.183 26.9367 332.667 27.4325C333.151 27.9165 333.824 28.1585 334.686 28.1585C335.477 28.1585 336.256 27.9342 337.023 27.4856C337.802 27.0252 338.575 26.3406 339.343 25.4316V20.6508ZM346.001 30V28.9907L347.683 28.973C347.931 28.9612 348.119 28.9199 348.249 28.8491C348.391 28.7664 348.497 28.6661 348.568 28.548C348.698 28.3119 348.781 27.8929 348.816 27.2908C348.816 27.1374 348.851 25.4434 348.922 22.209V20.1018C348.922 19.1575 348.904 18.1423 348.869 17.0563C348.834 16.3598 348.775 15.9466 348.692 15.8168C348.621 15.6869 348.491 15.5925 348.302 15.5335C348.114 15.4626 347.346 15.4331 346.001 15.4449V14.4356C348.385 14.1051 350.126 13.6742 351.224 13.143C351.46 13.025 351.62 12.966 351.702 12.966C351.785 12.966 351.85 12.9955 351.897 13.0545C351.944 13.1135 351.968 13.2021 351.968 13.3201C351.968 13.4027 351.962 13.4972 351.95 13.6034C351.915 14.0284 351.879 14.9255 351.844 16.2949L355.137 13.4795C356.105 13.1253 357.02 12.9483 357.882 12.9483C358.838 12.9483 359.741 13.143 360.591 13.5326C361.453 13.9221 362.096 14.412 362.521 15.0023C362.958 15.5925 363.247 16.3362 363.389 17.2333C363.471 17.7645 363.513 19.246 363.513 21.6778V24.8119C363.513 26.3465 363.554 27.3912 363.637 27.946C363.696 28.3001 363.784 28.548 363.902 28.6897C364.032 28.8195 364.227 28.9022 364.487 28.9376L366.381 28.9907V30C365.224 29.9174 364.262 29.8761 363.495 29.8761C362.834 29.8761 361.736 29.9174 360.201 30C360.367 27.0843 360.449 25.2427 360.449 24.4754V21.5007C360.449 19.6474 360.379 18.4315 360.237 17.8531C360.036 17.0622 359.582 16.4247 358.873 15.9407C358.165 15.4567 357.309 15.2147 356.306 15.2147C355.421 15.2147 354.612 15.4272 353.88 15.8522C353.148 16.2653 352.623 16.7493 352.304 17.3042C351.997 17.8472 351.844 18.7679 351.844 20.0664V22.209C351.915 25.2782 351.95 26.9367 351.95 27.1846C351.974 27.7748 352.044 28.2057 352.163 28.4772C352.21 28.5834 352.281 28.6779 352.375 28.7605C352.469 28.8313 352.617 28.8904 352.818 28.9376C352.889 28.9494 353.538 28.9671 354.765 28.9907V30C353.325 29.9174 352.021 29.8761 350.852 29.8761C349.861 29.8761 348.243 29.9174 346.001 30ZM367.426 16.1178V15.3741C368.606 14.9255 369.545 14.5242 370.241 14.17C370.241 11.3605 370.206 9.56623 370.135 8.78713C371.363 8.36216 372.36 7.90769 373.127 7.4237L373.552 7.77784C373.423 8.75762 373.281 10.9179 373.127 14.2586C374.072 14.2704 374.638 14.2763 374.827 14.2763C374.934 14.2763 375.542 14.2645 376.651 14.2409C377.265 14.2291 377.725 14.2054 378.032 14.17L378.156 14.294L377.784 15.9407C377.041 15.9289 376.356 15.923 375.73 15.923C375.105 15.923 374.237 15.9289 373.127 15.9407L373.021 23.1474C372.986 24.9063 372.998 25.9569 373.057 26.2993C373.116 26.6416 373.228 26.9426 373.393 27.2023C373.558 27.4502 373.771 27.6509 374.031 27.8043C374.302 27.9578 374.757 28.0758 375.394 28.1585C375.878 28.1585 376.268 28.1408 376.563 28.1054C376.87 28.0581 377.253 27.9519 377.714 27.7866L377.926 28.4772C377.371 28.914 376.834 29.3685 376.315 29.8406C375.866 30.0059 375.447 30.1121 375.058 30.1594C374.668 30.2184 374.219 30.2479 373.712 30.2479C373.086 30.2479 372.584 30.1771 372.207 30.0354C371.841 29.8938 371.504 29.699 371.197 29.4511C370.891 29.1914 370.637 28.8668 370.436 28.4772C370.235 28.0877 370.106 27.4738 370.046 26.6357C370.058 25.833 370.082 24.9535 370.117 23.9974C370.129 23.8085 370.135 23.6019 370.135 23.3776V16.0293H369.409C368.819 16.0293 368.158 16.0588 367.426 16.1178ZM383.557 5.06868C384.112 5.06868 384.578 5.26346 384.956 5.65301C385.345 6.04256 385.54 6.51474 385.54 7.06956C385.54 7.61257 385.345 8.07885 384.956 8.46841C384.566 8.85796 384.1 9.05273 383.557 9.05273C383.002 9.05273 382.53 8.85796 382.14 8.46841C381.751 8.07885 381.556 7.61257 381.556 7.06956C381.556 6.51474 381.751 6.04256 382.14 5.65301C382.53 5.26346 383.002 5.06868 383.557 5.06868ZM379.236 15.4272V14.4179C381.526 14.1582 383.451 13.6624 385.009 12.9305L385.398 13.2139C385.304 15.7282 385.257 17.6524 385.257 18.9863V22.209C385.316 25.2782 385.351 26.9367 385.363 27.1846C385.375 27.7748 385.44 28.2057 385.558 28.4772C385.617 28.5834 385.694 28.6779 385.788 28.7605C385.882 28.8313 386.024 28.8904 386.213 28.9376C386.284 28.9494 386.939 28.9671 388.178 28.9907V30C386.384 29.9174 384.95 29.8761 383.876 29.8761C382.931 29.8761 381.385 29.9174 379.236 30V28.9907L380.919 28.973C381.166 28.9612 381.355 28.9199 381.485 28.8491C381.627 28.7664 381.733 28.6661 381.804 28.548C381.934 28.3119 382.016 27.8929 382.052 27.2908C382.052 27.1374 382.087 25.4434 382.158 22.209V19.0925C382.158 17.3337 382.099 16.289 381.981 15.9584C381.91 15.7814 381.78 15.6515 381.591 15.5689C381.414 15.4744 380.629 15.4272 379.236 15.4272ZM390.339 16.1532V15.4272C391.259 15.0377 392.074 14.6245 392.782 14.1877V13.1253C392.782 11.5907 392.877 10.5106 393.065 9.88496C393.266 9.24751 393.544 8.68089 393.898 8.1851C394.429 7.45321 395.267 6.52065 396.412 5.38741C397.179 4.64372 397.746 4.17743 398.112 3.98856C398.596 3.74066 399.163 3.61671 399.812 3.61671C400.272 3.61671 400.744 3.69344 401.228 3.8469L401.299 6.78625L400.892 6.94561C400.526 6.63869 400.16 6.41441 399.794 6.27275C399.44 6.1311 399.021 6.06027 398.537 6.06027C397.899 6.06027 397.38 6.19012 396.979 6.44982C396.577 6.70952 396.282 7.08137 396.093 7.56535C395.916 8.04934 395.828 9.03503 395.828 10.5224V14.1877H397.705C398.649 14.1877 399.576 14.1523 400.485 14.0815L400.662 14.1877L400.308 16.0115C399.281 15.9643 398.525 15.9407 398.041 15.9407C397.545 15.9407 396.808 15.9643 395.828 16.0115V22.3506C395.828 23.1297 395.857 24.5522 395.916 26.618C395.928 27.3499 395.958 27.8161 396.005 28.0168C396.052 28.2175 396.111 28.3651 396.182 28.4595C396.265 28.5421 396.394 28.613 396.571 28.672C396.926 28.7782 397.882 28.8845 399.44 28.9907V30C396.689 29.9174 395.013 29.8761 394.411 29.8761C393.868 29.8761 392.351 29.9174 389.861 30V28.9907L391.543 28.973C391.791 28.9612 391.979 28.9199 392.109 28.8491C392.251 28.7664 392.357 28.6661 392.428 28.548C392.558 28.3119 392.641 27.8929 392.676 27.2908C392.676 27.1374 392.711 25.4434 392.782 22.209V16.0115L390.339 16.1532Z" fill="black"/>
<defs>
<clipPath id="clip0_10_61">
<rect width="30" height="30" fill="white" transform="translate(0 5)"/>
</clipPath>
</defs>
</svg>
