<?xml version="1.0" standalone="no"?>
<!DOCTYPE svg PUBLIC "-//W3C//DTD SVG 20010904//EN"
 "http://www.w3.org/TR/2001/REC-SVG-20010904/DTD/svg10.dtd">
<svg version="1.0" xmlns="http://www.w3.org/2000/svg"
 width="640.000000pt" height="640.000000pt" viewBox="0 0 640.000000 640.000000"
 preserveAspectRatio="xMidYMid meet">
<metadata>
Created by potrace 1.14, written by Peter Selinger 2001-2017
</metadata>
<g transform="translate(0.000000,640.000000) scale(0.100000,-0.100000)"
fill="#000000" stroke="none">
<path d="M4569 6315 c-1 -3 -2 -8 -3 -12 -2 -5 -6 -39 -10 -78 -4 -38 -9 -86
-11 -105 -2 -19 -7 -66 -10 -105 -5 -65 -10 -115 -20 -205 -2 -19 -7 -71 -10
-115 -3 -44 -8 -101 -11 -127 -4 -47 -3 -48 23 -49 16 0 35 -2 43 -3 8 -2 53
-6 100 -10 47 -4 99 -9 115 -11 17 -2 64 -6 105 -10 41 -3 84 -8 95 -10 11 -2
29 -4 40 -4 14 -1 16 -4 7 -9 -7 -5 -110 -105 -230 -223 -119 -119 -222 -218
-229 -222 -6 -4 -33 5 -60 21 -242 140 -567 224 -868 225 -73 0 -266 -13 -275
-18 -3 -2 -24 -6 -48 -10 -130 -19 -310 -79 -470 -156 l-123 -60 -122 60
c-251 123 -506 182 -790 184 -64 1 -216 -10 -258 -18 -13 -3 -39 -7 -59 -10
-142 -21 -334 -85 -485 -162 -827 -418 -1202 -1391 -866 -2250 138 -352 387
-657 701 -859 121 -77 361 -188 453 -209 12 -2 43 -10 70 -17 l47 -11 0 -71 0
-71 -298 0 c-163 1 -305 -1 -314 -3 -15 -4 -16 -36 -15 -400 l2 -397 300 -1
c165 -1 306 -2 313 -3 10 -1 13 -47 12 -218 -1 -120 -1 -253 -1 -295 l1 -78
400 0 400 0 2 297 3 297 300 0 300 1 1 390 c1 214 0 394 -2 400 -3 6 -106 10
-304 10 l-300 0 0 72 c0 61 3 73 16 73 38 0 278 88 382 141 l114 57 91 -48
c160 -83 373 -154 532 -176 22 -3 65 -9 95 -14 55 -8 378 -6 415 3 11 3 42 8
68 11 163 22 466 129 591 209 11 6 45 27 75 46 243 148 477 399 620 663 57
105 129 282 146 358 2 8 10 42 19 75 81 316 60 707 -56 1025 -39 104 -106 245
-155 322 -12 21 -23 42 -23 46 0 10 405 415 420 420 6 2 10 -11 11 -30 0 -18
2 -44 4 -58 1 -14 6 -68 10 -120 4 -52 9 -108 11 -125 2 -16 6 -70 10 -119 3
-49 7 -94 8 -100 3 -18 17 -37 24 -32 4 2 48 7 97 10 50 4 108 9 130 11 64 7
141 14 290 26 77 6 149 12 160 14 11 2 35 4 54 4 l34 1 -6 163 c-4 89 -9 172
-11 184 -3 11 -7 61 -11 110 -4 48 -8 104 -10 123 -2 19 -6 73 -10 120 -3 47
-8 95 -10 108 -2 12 -7 62 -10 110 -3 48 -8 103 -10 122 -2 19 -7 67 -10 105
-6 74 -12 141 -20 228 -3 28 -7 84 -10 122 -3 39 -8 88 -10 110 -2 22 -7 76
-10 120 -4 44 -7 81 -8 81 -3 3 -117 16 -267 29 -36 3 -83 8 -105 10 -22 2
-71 7 -110 10 -38 3 -86 7 -105 10 -19 2 -67 7 -107 10 -40 4 -85 8 -100 10
-15 2 -66 7 -113 10 -47 3 -96 8 -110 10 -14 2 -61 7 -105 11 -44 3 -91 8
-105 9 -14 1 -59 6 -100 9 -41 4 -88 9 -105 11 -16 2 -66 6 -110 10 -44 3 -95
8 -112 10 -18 3 -34 3 -34 0z m-2629 -1860 c30 -3 62 -8 70 -10 8 -2 34 -9 57
-15 l42 -11 -35 -62 c-75 -133 -135 -282 -174 -431 -28 -109 -31 -126 -49
-256 -9 -68 -7 -384 3 -435 3 -16 9 -46 12 -65 11 -63 13 -74 33 -150 30 -118
87 -264 151 -386 l59 -111 -82 -19 c-99 -22 -332 -25 -417 -5 -391 92 -673
366 -769 746 -26 103 -31 267 -11 388 69 435 442 786 875 824 33 3 61 6 63 8
3 3 105 -3 172 -10z m1819 0 c191 -19 405 -121 554 -264 104 -99 173 -200 241
-351 39 -89 70 -252 69 -375 0 -53 -12 -175 -18 -185 -3 -4 -7 -25 -11 -45
-14 -93 -98 -266 -175 -367 -150 -192 -398 -342 -624 -375 -91 -14 -295 -8
-381 11 l-81 18 67 132 c88 174 155 376 176 531 3 28 9 54 11 59 10 15 11 350
2 426 -31 257 -115 507 -241 717 l-19 32 38 10 c40 10 147 29 198 34 38 3 111
0 194 -8z m-1012 -667 c12 -35 27 -88 34 -118 14 -61 18 -276 7 -355 -9 -61
-59 -225 -68 -225 -10 0 -58 165 -69 235 -13 88 -11 219 4 310 17 94 52 215
64 215 4 0 17 -28 28 -62z"/>
</g>
</svg>
