<svg width="12" height="12" viewBox="0 0 12 12" fill="none" xmlns="http://www.w3.org/2000/svg">
<path d="M10.5625 11.25L6.45312 7.14062C6.14062 7.41146 5.77604 7.6224 5.35937 7.77344C4.94271 7.92448 4.5 8 4.03125 8C2.90625 8 1.95312 7.60937 1.17188 6.82812C0.390625 6.04687 0 5.10417 0 4C0 2.89583 0.390625 1.95312 1.17188 1.17188C1.95312 0.390625 2.90104 0 4.01563 0C5.11979 0 6.0599 0.390625 6.83594 1.17188C7.61198 1.95312 8 2.89583 8 4C8 4.44792 7.92708 4.88021 7.78125 5.29688C7.63542 5.71354 7.41667 6.10417 7.125 6.46875L11.25 10.5625L10.5625 11.25ZM4.01563 7.0625C4.85938 7.0625 5.57813 6.76302 6.17188 6.16406C6.76562 5.5651 7.0625 4.84375 7.0625 4C7.0625 3.15625 6.76562 2.4349 6.17188 1.83594C5.57813 1.23698 4.85938 0.9375 4.01563 0.9375C3.16146 0.9375 2.4349 1.23698 1.83594 1.83594C1.23698 2.4349 0.9375 3.15625 0.9375 4C0.9375 4.84375 1.23698 5.5651 1.83594 6.16406C2.4349 6.76302 3.16146 7.0625 4.01563 7.0625V7.0625Z" fill="#C45D41"/>
</svg>
